<?xml version="1.0" encoding="utf-8"?>
<!-- Generator: Adobe Illustrator 16.0.0, SVG Export Plug-In . SVG Version: 6.00 Build 0)  -->
<!DOCTYPE svg PUBLIC "-//W3C//DTD SVG 1.1//EN" "http://www.w3.org/Graphics/SVG/1.1/DTD/svg11.dtd">
<svg version="1.1" xmlns="http://www.w3.org/2000/svg" xmlns:xlink="http://www.w3.org/1999/xlink" x="0px" y="0px"
	 width="303.462px" height="314.499px" viewBox="-274.516 -284.501 303.462 314.499"
	 enable-background="new -274.516 -284.501 303.462 314.499" xml:space="preserve">
<g id="Layer_2">
	<rect x="-180.027" y="-249.834" fill="#313131" width="149.333" height="226.667"/>
</g>
<g id="Capa_1">
	<g>
		<path fill="#BFBBBB" d="M-18.045-145.521h-27.893h-3.717c-8.253,0-14.939,6.69-14.939,14.972v1.626
			c0,8.277,6.686,14.968,14.948,14.968h27.901h3.699c8.253,0,14.958-6.709,14.958-14.968l-0.02-1.649
			C-3.087-138.831-9.792-145.521-18.045-145.521z"/>
		<path fill="#BFBBBB" d="M-18.026-182.857h-6.596v-72.397c0-10.404-8.508-18.918-18.911-18.918h-124.743
			c-10.394,0-18.902,8.514-18.902,18.918v51.943c-25.169,14.238-51.122,29.105-51.176,29.142
			c-14.083,5.796-34.725,24.52-34.725,68.728c0,3.946,0.254,7.603,0.619,11.12c0.118,1.022,0.246,2.024,0.383,3.008
			c0.364,2.589,0.82,5.059,1.366,7.411c0.191,0.829,0.346,1.704,0.556,2.507c0.729,2.734,1.576,5.277,2.533,7.692
			c0.473,1.203,0.993,2.315,1.521,3.446c0.556,1.185,1.121,2.333,1.722,3.437c0.701,1.304,1.403,2.579,2.168,3.783
			c0.182,0.273,0.383,0.538,0.564,0.82c18.2,27.519,51.759,27.646,51.759,27.646h22.71v21.502c0,10.382,8.508,18.896,18.902,18.896
			h124.743c10.403,0,18.911-8.514,18.911-18.896v-26.224h2.878v-0.019h3.689c8.272,0,14.967-6.699,14.958-14.976l0.019-1.623
			c-0.028-8.267-6.714-14.94-14.967-14.94h-3.699h-24.194h-3.717c-8.271,0-14.939,6.691-14.939,14.949v1.668
			c0,8.24,6.686,14.949,14.948,14.949h11.869v10.126h-136.248v-135.834c6.841-4.344,13.181-8.522,16.797-11.325
			c18.31-14.17,35.69-25.455,38.041-35.691c3.061-13.276-7.133-24.465-24.795-15.282c-5.566,2.894-16.998,9.234-30.042,16.567
			v-33.471l136.248,0.019v61.308h-8.162v0.019h-3.699c-8.262,0-14.966,6.69-14.966,14.972v1.623c0,8.281,6.705,14.953,14.948,14.953
			h3.708h24.194h3.716c8.253,0,14.939-6.69,14.939-14.953v-1.664C-3.087-176.148-9.774-182.857-18.026-182.857z M-105.913-22.521
			c5.229,0,9.456,4.229,9.456,9.47c0,5.232-4.227,9.443-9.456,9.443c-5.219,0-9.437-4.22-9.437-9.461
			C-115.341-18.274-111.123-22.521-105.913-22.521z M-85.946-255.961h-39.908c-1.267,0-2.295-1.021-2.295-2.278
			c0-1.281,1.029-2.297,2.295-2.297h39.908c1.257,0,2.278,1.017,2.278,2.297C-83.668-256.981-84.688-255.961-85.946-255.961z"/>
		<path fill="#BFBBBB" d="M-18.045-108.186h-3.699h-27.911c-8.244,0-14.948,6.708-14.948,14.977v1.642
			c0,8.258,6.687,14.948,14.948,14.948h3.708h24.194h3.698c8.272,0,14.94-6.69,14.958-14.948l-0.01-1.642
			C-3.106-101.478-9.774-108.186-18.045-108.186z"/>
	</g>
</g>
</svg>
