<?xml version="1.0" encoding="utf-8"?>
<!-- Generator: Adobe Illustrator 17.0.0, SVG Export Plug-In . SVG Version: 6.00 Build 0)  -->
<!DOCTYPE svg PUBLIC "-//W3C//DTD SVG 1.0//EN" "http://www.w3.org/TR/2001/REC-SVG-20010904/DTD/svg10.dtd">
<svg version="1.0" id="Layer_1" xmlns="http://www.w3.org/2000/svg" xmlns:xlink="http://www.w3.org/1999/xlink" x="0px" y="0px"
	 width="1200px" height="1200px" viewBox="0 0 1200 1200" enable-background="new 0 0 1200 1200" xml:space="preserve">
<g>
	<path fill="#FC7F0B" d="M1151.083,385.44c-4.842,6.845-9.568,13.626-14.407,20.324c-2.174,3.009-6.347,5.925-5.475,9.296
		c0.775,2.997,5.751,1.393,8.818,1.921c8.659,1.491,17.401,2.503,27.133,3.845c-2.545,2.409-4.117,4.456-6.168,5.735
		c-7.025,4.38-11.868,11.203-18.386,16.075c-3.84,2.87-2.3,4.205,0.888,5.431c10.137,3.898,20.307,7.708,31.116,11.798
		c-9.075,4.74-17.826,9.334-26.602,13.88c-2.254,1.168-6.06,1.699-6.238,3.848c-0.213,2.566,3.427,3.742,5.634,5.204
		c7.863,5.207,15.808,10.293,24.089,16.864c-10.422,2.571-19.913,4.86-29.369,7.285c-2.247,0.576-5.742,0.144-6.321,2.376
		c-0.493,1.901,2.37,3.768,3.955,5.497c6.546,7.142,13.081,14.294,20.758,22.685c-13.476,0-25.427,0-38.076,0
		c5.056,12.273,11.946,22.384,18.415,34.355c-7.661-1.657-13.929-3.006-20.194-4.371c-4.334-0.944-8.692-1.793-12.984-2.901
		c-3.321-0.857-4.078,0.293-3.186,3.325c1.282,4.359,2.502,8.736,2.734,13.814c-5.601-5.574-11.336-11.023-16.73-16.791
		c-1.866-1.996,0.718-3.3,1.932-4.513c10.347-10.341,19.082-21.85,25.215-35.181c17.789-38.663,17.36-77.22-2.745-114.696
		c-15.316-28.549-38.796-48.464-69.607-59.293c-20.057-7.049-40.861-9.286-61.562-5.445c-44.627,8.279-77.352,33.266-95.649,74.941
		c-13.251,30.182-13.94,61.49-2.469,92.826c6.57,17.947,16.613,33.517,30.282,46.762c2.773,2.687,2.607,4.27-0.136,6.963
		c-5.074,4.982-9.625,10.498-15.159,15.188c-0.676-5.02,1.427-8.868,2.479-12.967c1.482-5.777,1.266-5.93-4.379-4.682
		c-10.095,2.232-20.212,4.36-31.463,6.777c6.336-11.572,12.156-22.201,18.238-33.31c-12.828-1.514-24.894-0.286-38.037-1.151
		c5.465-6.279,10.295-11.871,15.18-17.414c1.466-1.664,3.109-3.171,4.63-4.789c1.376-1.463,3.258-2.755,2.436-5.21
		c-0.765-2.284-2.953-1.83-4.681-2.38c-9.21-2.934-18.931-4.043-28.462-7.754c3.274-4.351,7.976-6.144,11.796-9.005
		c4.77-3.572,9.767-6.854,14.786-10.075c3.23-2.073,2.56-3.283-0.411-4.841c-9.499-4.983-18.919-10.115-29.407-15.747
		c7.15-2.861,13.299-6.423,19.871-7.578c4.72-0.829,8.059-3.587,12.069-5.238c3.445-1.419,0.479-3.531-1.087-4.9
		c-6.906-6.041-13.875-12.01-20.765-18.07c-0.835-0.734-2.302-1.391-1.944-2.771c0.446-1.719,2.2-1.293,3.46-1.455
		c9.232-1.189,18.47-2.332,27.711-3.458c3.46-0.421,5.278-1.135,2.341-4.957c-5.29-6.884-10.151-14.098-15.214-21.158
		c-1.089-1.518-3.072-3.369-2.137-4.835c0.985-1.545,3.545-1.207,5.643-0.951c8.116,0.992,16.245,1.943,24.394,2.589
		c4.805,0.381,5.533-0.884,3.753-5.317c-3.366-8.383-6.742-16.762-10.138-25.133c-0.418-1.029-1.866-1.92-0.767-3.136
		c0.959-1.06,2.392-0.414,3.364,0.025c8.419,3.802,17.471,5.758,26.048,9.077c1.624,0.629,3.327,1.55,4.844,0.457
		c1.6-1.152,0.219-2.884,0.024-4.284c-1.317-9.46-2.789-18.899-4.172-28.351c-0.114-0.781,0.054-1.604,0.135-3.349
		c8.438,5.357,16.354,10.249,24.127,15.361c5.726,3.765,7.933,2.901,8.343-3.941c0.561-9.358,0.906-18.728,2.403-28.372
		c2.995,1.129,4.688,3.51,6.634,5.446c5.445,5.419,10.758,10.973,16.069,16.526c2.632,2.752,4.303,2.165,5.442-1.278
		c3.319-10.037,6.668-20.065,10.185-30.635c5.394,6.762,8.702,14.433,13.178,21.354c1.995,3.085,2.804,8.326,6.462,8.515
		c3.876,0.2,4.793-5.067,6.702-8.143c3.499-5.639,6.827-11.385,10.224-17.088c0.699-1.174,1.356-2.724,2.851-2.628
		c1.547,0.099,1.883,1.85,2.278,3.062c2.789,8.562,5.472,17.158,8.195,25.741c1.391,4.385,2.091,4.417,5.459,1.036
		c7.376-7.405,14.884-14.677,23.15-22.802c0.857,10.523,1.597,19.813,2.384,29.099c0.18,2.127-0.468,4.572,1.953,5.975
		c2.573,1.491,3.999-0.578,5.833-1.757c7.152-4.598,14.378-9.081,21.607-13.557c0.821-0.508,2.045-1.22,2.713-0.944
		c1.402,0.58,0.7,2.067,0.519,3.172c-1.436,8.745-2.971,17.475-4.365,26.226c-0.994,6.237,0.029,7.05,6.171,4.964
		c8.238-2.797,16.436-5.709,24.673-8.51c1.032-0.351,2.214-1.54,3.266-0.327c0.928,1.071,0.144,2.273-0.416,3.307
		c-4.57,8.431-7.191,17.695-11.258,26.33c-1.759,3.733-0.984,4.996,3.078,4.554c9.016-0.983,18.042-1.88,27.063-2.816
		C1147.289,384.843,1148.946,384.262,1151.083,385.44z"/>
	<path d="M1003.457,600.797c-5.804-0.002-11.608-0.003-17.412-0.002c-11.425,0.002-20.12-8.756-19.05-18.673
		c1.62-15.013-3.443-26.289-13.344-37.48c-12.662-14.312-21.536-31.315-27.366-49.801c-14.538-46.1,17.671-96.639,65.78-102.832
		c39.763-5.119,75.296,16.413,88.524,53.839c8.703,24.623,4.051,47.849-7.757,70.294c-7.899,15.015-17.705,28.68-28.954,41.306
		c-2.162,2.427-2.892,4.732-2.742,7.801c0.249,5.11,0.321,10.237,0.232,15.353c-0.207,11.98-8.522,20.119-20.501,20.191
		C1015.064,600.829,1009.26,600.8,1003.457,600.797z M1018.266,566.854c0,7.034-0.003,11.987,0.001,16.939
		c0.004,5.319,1.703,6.399,6.688,4.426c3.382-1.339,4.451-3.983,4.458-7.303c0.014-6.489,0.214-12.988-0.091-19.463
		c-0.184-3.914,1.101-6.811,3.718-9.581c9.158-9.697,17.161-20.317,24.088-31.702c8.311-13.66,15.122-28.05,16.081-44.267
		c2.54-42.949-34.245-77.12-77.768-72.603c-41.018,4.257-69.818,46.908-58.357,86.303c7.089,24.367,21.465,44.289,38.121,62.808
		c2.099,2.333,3.191,4.592,3.137,7.707c-0.119,6.828,0.025,13.659,0.005,20.49c-0.012,4.114,1.881,6.877,5.792,8.026
		c3.434,1.009,5.999,0.841,5.411-4.075c-0.423-3.536,0.016-7.166-0.102-10.748c-0.281-8.515,1.291-17.19-0.747-25.524
		c-5.585-22.84-11.667-45.559-17.488-68.342c-0.557-2.178-1.268-3.883-3.152-5.466c-3.555-2.987-2.923-7.708,1.286-9.613
		c22.87-10.35,45.864-10.446,68.781-0.148c4.533,2.037,5.183,6.684,1.417,9.9c-1.581,1.35-2.29,2.731-2.763,4.59
		c-3.193,12.556-6.715,25.034-9.631,37.652C1023.186,534.035,1015.77,550.652,1018.266,566.854z M997.458,568.524
		c0,3.757,0,7.513,0,11.27c0,9.604-0.002,9.477,9.404,9.328c2.989-0.047,3.688-1.085,3.648-3.885
		c-0.146-10.243-0.011-20.49-0.086-30.734c-0.023-3.11,0.505-6.051,1.284-9.06c5.85-22.603,11.561-45.243,17.314-67.871
		c0.559-2.198,1.117-3.895-2.166-4.945c-15.476-4.951-30.807-5.031-46.226,0.149c-2.384,0.801-2.785,1.813-2.182,4.081
		c3.106,11.671,6.316,23.322,9.052,35.082C991.844,530.61,999.799,548.67,997.458,568.524z"/>
	<path fill="#FC7F0B" d="M356.848,369.937c-0.439,0.883-1.063,2.082-1.638,3.304c-7.029,14.935-0.701,32.427,14.176,39.302
		c2.998,1.385,6.106,2.362,9.395,1.979c3.914-0.456,5.727,1.043,6.572,4.94c3.994,18.433,4.778,36.759-0.539,55.109
		c-0.783,2.701-1.968,3.341-4.565,3.429c-20.785,0.707-34.437,22.107-24.764,41.527c1.568,3.149,1.424,5.068-1.143,7.519
		c-13.722,13.103-29.673,22.15-47.92,27.308c-3.04,0.859-4.164-0.534-5.71-2.66c-10.584-14.561-27.096-17.61-41.163-7.767
		c-3.139,2.196-5.443,5.143-7.401,8.358c-1.337,2.196-2.784,2.757-5.464,2.055c-18.972-4.972-35.022-14.891-49.007-28.402
		c-1.582-1.529-1.911-2.92-0.635-5.325c10.487-19.75-1.941-41.351-24.376-42.555c-2.577-0.138-4.008-0.734-4.644-3.499
		c-4.231-18.397-4.637-36.75-0.155-55.181c0.805-3.309,1.946-4.788,5.682-4.89c20.628-0.564,33.516-22.213,24.228-40.925
		c-1.964-3.957-1.159-5.869,1.754-8.526c13.587-12.39,29.111-21.225,46.735-26.444c2.372-0.702,3.862-0.788,5.43,1.769
		c11.985,19.546,38.831,18.894,49.662-0.437c1.146-2.046,2.462-2.265,4.636-1.654c18.438,5.175,34.36,14.726,48.466,27.507
		C356.291,367.436,356.851,368.288,356.848,369.937z M214.188,446.093c0.015,34.945,27.8,62.839,62.682,62.717
		c34.286-0.12,61.566-27.817,62.042-60.77c0.535-37.078-28.073-63.367-61.394-63.993
		C240.863,383.36,213.644,414.089,214.188,446.093z"/>
	<path d="M404.882,331.909c-0.398-2.766-1.161-6.217-2.845-9.421c-1.065-2.027-0.756-3.575,1.077-5.27
		c10.27-9.492,21.783-16.685,35.447-20.235c2.262-0.588,3.845-0.776,5.07,1.635c6.659,13.107,27.029,13.917,36.465,0.82
		c1.974-2.739,3.822-3.354,6.846-2.407c13.079,4.096,24.207,11.328,34.138,20.641c1.688,1.583,2.174,2.716,0.839,4.701
		c-8.808,13.085,3.477,30.228,14.873,31.317c6.435,0.615,8.425,3.717,8.999,9.553c1.175,11.936,1.633,23.76-1.209,35.564
		c-0.595,2.471-1.402,3.354-3.929,3.477c-15.881,0.77-25.995,17.077-18.617,31.823c1.147,2.292,0.778,3.702-0.943,5.325
		c-10.359,9.771-22.264,16.782-35.993,20.736c-2.774,0.799-3.494-0.826-4.775-2.502c-7.521-9.843-19.07-12.254-29.465-6.354
		c-2.432,1.38-4.713,3.187-5.894,5.493c-1.931,3.768-4.239,3.928-7.851,2.782c-13.247-4.204-24.695-11.263-34.689-20.844
		c-1.423-1.364-1.35-2.423-0.428-3.975c7.539-12.704-0.927-30.459-15.405-31.801c-6.894-0.639-7.512-4.936-8.256-9.743
		c-1.761-11.375-1.164-22.705,0.913-34.001c0.529-2.876,1.538-4.25,4.861-4.522C395.646,353.755,404.913,343.689,404.882,331.909z
		 M462.38,331.395c-28.862-1.093-48.193,21.951-47.963,47.594c0.219,24.352,20.497,47.596,49.066,46.74
		c25.205-0.755,46.975-21.797,46.141-49.342C508.915,352.955,487.996,330.237,462.38,331.395z"/>
	<path d="M488.788,550.788c0.548,3.761-0.492,6.538-5.988,8.57c-10.3,3.808-13.365,15.983-7.02,25.126
		c1.789,2.577,1.314,3.973-0.243,6.063c-6.332,8.502-14.307,14.974-23.652,19.9c-2.021,1.065-3.044,0.815-4.728-0.787
		c-9.457-8.991-22.125-6.846-27.982,4.837c-1.304,2.6-2.644,2.908-5.078,2.603c-10.323-1.294-19.815-4.773-28.645-10.256
		c-2.133-1.324-2.792-2.336-2.158-5.12c2.866-12.577-5.545-22.256-18.545-21.631c-2.182,0.105-3.401-0.281-4.293-2.448
		c-4.086-9.923-6.215-20.148-5.719-30.926c0.115-2.508,1.102-3.401,3.375-4.141c12.25-3.985,16.619-15.629,9.602-26.259
		c-1.765-2.674-1.078-4.09,0.405-6.041c6.395-8.411,14.233-15.053,23.709-19.803c1.736-0.87,2.87-1.382,4.288,0.428
		c7.388,9.431,24.38,6.894,28.552-4.953c0.701-1.989,1.894-2.387,3.907-2.183c11.082,1.121,21.161,4.913,30.517,10.876
		c1.861,1.186,1.748,2.413,1.367,4.265c-2.704,13.136,5.069,22.317,18.652,21.842c2.448-0.086,3.142,0.836,4.018,2.734
		C486.985,531.835,488.568,540.635,488.788,550.788z M402.036,550.165c-0.092,10.924,8.815,20.035,19.638,20.086
		c10.658,0.051,20.068-9.234,20.043-19.775c-0.026-10.588-8.843-19.541-19.498-19.799
		C411.38,530.414,402.127,539.349,402.036,550.165z"/>
	<path d="M136.391,481.104c3.794-0.619,6.228,0.435,8.483,5.372c3.726,8.155,13.36,11.306,22.106,5.282
		c2.707-1.865,4.365-1.725,6.666-0.095c7.196,5.101,13.174,11.318,17.741,18.89c1.453,2.41,1.68,4.219-0.383,6.783
		c-6.422,7.982-4.21,18.635,4.981,23.282c3.485,1.762,4.298,3.814,3.855,7.18c-1.076,8.177-3.206,16.028-7.189,23.292
		c-1.319,2.405-2.539,4.141-6.303,3.446c-10.186-1.881-19.094,6.593-17.923,16.911c0.357,3.145-0.762,4.376-3.044,5.467
		c-8.449,4.04-17.441,5.646-26.728,5.988c-2.02,0.075-2.971-0.682-3.669-2.64c-3.708-10.395-15.046-15.073-24.846-7.883
		c-1.451,1.064-2.626,1.049-4.504,0.02c-8.725-4.781-14.449-12.255-19.499-20.448c-1.159-1.88-0.597-3.264,0.712-5.017
		c6.996-9.37,4.946-18.712-5.345-24.267c-2.667-1.44-3.421-2.805-3-5.991c1.153-8.721,3.135-17.049,7.48-24.8
		c1.53-2.73,3.402-3.495,6.233-2.983c9.832,1.778,17.799-4.462,17.358-14.545c-0.232-5.304,2.154-7.337,6.264-8.825
		C122.271,483.195,128.725,480.951,136.391,481.104z M156.947,542.147c0.128-9.447-8.028-17.99-17.227-18.044
		c-10.129-0.06-18.337,7.674-18.453,17.388c-0.114,9.509,8.251,18.266,17.623,18.449C148.466,560.126,156.814,551.9,156.947,542.147
		z"/>
	<path fill="#FC7F0B" d="M557.477,436.953c3.469-0.872,5.609,0.965,7.224,5.301c3.905,10.487,15.939,14.363,25.34,8.306
		c3.565-2.297,5.947-2.346,9.412,0.375c8.046,6.32,14.526,13.82,19.606,22.633c1.256,2.178,1.191,3.745-0.644,5.859
		c-8.663,9.981-6.516,21.897,5.153,28.205c3.363,1.818,3.918,3.787,3.426,7.343c-1.375,9.942-4.339,19.259-9.377,27.93
		c-1.341,2.308-2.469,3.673-5.954,2.973c-12.356-2.484-22.436,6.264-21.964,18.898c0.137,3.662-1.269,5.102-4.26,6.426
		c-9.544,4.226-19.614,5.506-29.889,6.024c-2.918,0.147-3.62-1.451-4.516-3.739c-3.815-9.739-9.647-13.281-19.76-12.603
		c-2.886,0.194-5.583,1.189-7.483,2.971c-3.077,2.887-5.059,1.515-7.785-0.422c-8.252-5.862-14.32-13.537-19.487-22.084
		c-1.627-2.692-1.685-4.913,0.615-7.315c8.347-8.72,4.56-23.628-6.298-28.181c-2.633-1.104-3.103-2.652-2.937-5.119
		c0.739-10.961,4.353-20.975,9.785-30.414c1.262-2.194,2.887-2.762,5.54-2.236c12.351,2.446,22.095-5.694,21.711-18.327
		c-0.12-3.945,1.168-5.566,4.718-7.014C538.304,439.213,547.2,437.312,557.477,436.953z M557.467,545.813
		c21.568-0.015,39.158-17.463,39.171-38.854c0.012-21.239-18.186-39.189-39.675-39.134c-21.113,0.054-38.364,17.928-38.297,39.681
		C518.731,528.991,535.785,545.828,557.467,545.813z"/>
	<path fill="#FC7F0B" d="M643.861,599.999c6.174,3.698,12.768,6.663,18.352,11.388c3.484,2.948,5.657,5.291,3.689,10.588
		c-3.603,9.693,3.029,19.805,13.393,20.942c3.837,0.421,4.82,2.082,5.275,5.352c1.301,9.358,1.672,18.635-0.553,27.947
		c-0.671,2.807-1.915,4.131-4.687,4.232c-11.099,0.405-17.545,12.786-12.95,22.583c1.293,2.757,0.493,4.438-1.509,6.207
		c-7.397,6.536-15.939,10.965-25.221,14.16c-2.61,0.898-4.046,0.049-5.613-1.963c-7.092-9.104-18.921-9.184-26.031,0.005
		c-2.001,2.586-3.912,2.764-6.598,1.996c-9.397-2.688-17.037-8.398-24.631-14.194c-2.386-1.822-2.854-3.933-1.283-6.669
		c5.208-9.069-2.567-21.368-12.333-22.058c-3.219-0.227-4.968-1.652-5.665-5.221c-1.863-9.543-1.673-18.956,0.27-28.419
		c0.456-2.22,1.219-3.508,3.858-3.841c11.348-1.435,19.31-12.414,13.471-23.54c-1.226-2.336-0.33-3.876,1.312-5.366
		c7.82-7.098,16.724-12.226,26.913-15.169c2.214-0.639,3.067,0.426,4.159,1.848c7.508,9.784,18.96,9.819,26.624-0.04
		c1.428-1.837,2.756-2.163,4.782-1.563c1.603,0.474,3.187,1.325,4.966,0.783L643.861,599.999z M621.38,625.559
		c-19.846-0.649-36.577,15.988-36.609,36.078c-0.031,19.253,16.714,35.844,35.519,35.789c21.285-0.063,37.094-15.628,36.581-37.419
		C656.421,640.857,640.196,625.508,621.38,625.559z"/>
	<path d="M657.561,591.12c0.884-11.206-2.532-15.362-13.982-16.564c-2.17-0.228-2.945-1.362-3.622-2.962
		c-2.985-7.061-3.763-14.453-3.389-22.045c0.097-1.967,1.16-2.416,2.789-2.943c7.322-2.367,11.948-10.745,6.687-19.561
		c-1.208-2.025-0.988-3.306,0.433-4.954c4.712-5.467,10.057-10.152,16.215-13.938c2.028-1.247,3.485-1.142,5.424,0.446
		c6.902,5.654,15.091,4.536,19.624-2.971c1.82-3.014,3.978-3.579,6.732-2.914c6.128,1.479,12.188,3.216,17.702,6.459
		c2.249,1.323,3.207,2.591,2.738,5.62c-1.382,8.938,4.137,15.236,13.253,15.426c2.699,0.056,3.935,1.002,4.89,3.37
		c2.668,6.617,3.431,13.47,3.31,20.532c-0.042,2.429-0.972,3.429-3.177,4.397c-8.414,3.692-10.891,11.171-6.374,19.269
		c1.152,2.065,0.869,3.32-0.377,4.999c-4.453,6.004-10.062,10.563-16.62,14.11c-2.361,1.277-3.593,0.173-5.359-1.098
		c-7.378-5.309-14.776-3.808-19.475,3.965c-1.158,1.915-2.437,2.626-4.529,2.426c-7.79-0.744-14.924-3.282-21.381-7.709
		C657.876,593.66,656.968,592.696,657.561,591.12z M701.206,552.705c0.034-8.202-6.698-15.156-14.758-15.243
		c-7.63-0.082-14.711,6.904-14.838,14.64c-0.137,8.312,6.451,15.008,14.767,15.009C694.546,567.113,701.173,560.675,701.206,552.705
		z"/>
	<path d="M629.47,450.412c-0.375-1.933,0.731-3.59,3.516-4.98c5.528-2.76,7.004-7,4.705-12.77c-1.078-2.704-0.962-4.549,1.093-6.859
		c2.417-2.718,5.152-4.962,8.019-7.062c2.763-2.024,5.338-3.339,8.918-0.363c3.748,3.116,10.142,1.59,12.512-2.724
		c1.725-3.139,3.457-3.321,6.524-2.551c3.153,0.791,6.275,1.508,9.219,2.926c3.409,1.641,6.391,2.802,5.61,8.106
		c-0.787,5.339,3.059,8.794,9.198,9.493c2.714,0.309,3.956,1.386,4.63,3.763c0.881,3.108,2.032,6.135,2.258,9.415
		c0.26,3.791,0.508,7.032-4.032,9.195c-4.787,2.281-6.176,7.703-3.839,12.752c1.228,2.653,1.026,4.394-1.053,6.256
		c-2.157,1.933-4.045,4.183-6.295,5.991c-3.467,2.787-6.714,5.208-11.473,1.207c-3.576-3.007-9.237-1.302-11.852,3.264
		c-1.701,2.97-3.764,3.105-6.288,2.591c-4.532-0.923-8.779-2.674-12.835-4.929c-2.002-1.113-2.096-2.762-2.124-4.755
		c-0.107-7.684-2.683-10.603-10.215-11.051c-2.08-0.124-2.628-1.016-3.176-2.509C630.899,460.481,629.753,456.046,629.47,450.412z
		 M678.785,450.415c-0.015-6.006-5.077-11.289-10.847-11.321c-5.938-0.033-11.614,5.53-11.581,11.349
		c0.035,6.128,5.33,11.206,11.609,11.133C674.086,461.505,678.8,456.643,678.785,450.415z"/>
	<path d="M551.583,608.033c0.638,2.731-0.573,4.707-3.639,6.389c-3.736,2.049-4.913,5.668-2.889,9.644
		c0.778,1.527,1.46,2.781,0.145,4.115c-2.503,2.538-4.482,5.603-7.623,7.509c-2.231,1.353-3.993,2.116-6.927,0.622
		c-3.425-1.744-7.896-2.228-10.635,1.716c-1.999,2.878-4.17,2.818-7.037,2.071c-3.162-0.823-6.181-1.814-8.971-3.589
		c-1.569-0.999-2.578-1.878-2.352-3.993c0.577-5.407-2.238-8.468-7.408-9.082c-2.584-0.307-3.691-1.759-4.157-3.786
		c-0.76-3.309-1.205-6.694-1.692-10.06c-0.332-2.293,0.531-3.832,2.839-4.758c3.486-1.398,5.48-4.69,4.18-7.82
		c-3.317-7.987,2.697-10.623,7.207-14.185c2.374-1.875,4.789-2.689,7.704-0.179c2.739,2.359,6.331,1.604,8.236-1.052
		c3.8-5.299,8.151-3.463,12.653-1.883c4.117,1.445,7.879,2.956,6.996,8.781c-0.519,3.426,2.832,5.721,5.353,5.971
		c7.285,0.721,7.053,6.044,7.839,10.964C551.509,606.096,551.5,606.786,551.583,608.033z M529.111,609.345
		c0.063-5.43-3.411-9.146-8.704-9.31c-5.389-0.167-9.776,4.19-9.702,9.637c0.063,4.681,4.517,8.786,9.49,8.748
		C525.509,618.379,529.048,614.776,529.111,609.345z"/>
	<path fill="#FC7F0B" d="M431.29,669.704c0.053-4.744-2.625-8.445-7.151-8.629c-3.363-0.137-4.257-1.772-5.082-4.351
		c-1.059-3.309-1.067-6.725-1.406-10.114c-0.175-1.745,0.499-2.634,2.162-3.489c5.423-2.786,6.629-5.782,4.313-11.143
		c-0.9-2.083-0.857-3.431,0.656-4.985c2.263-2.323,4.463-4.684,7.236-6.448c2.257-1.436,4.055-2.319,6.727-0.126
		c3.395,2.786,7.77,2.041,9.957-1.329c2.591-3.993,5.509-3.077,8.703-2.265c2.125,0.54,4.135,1.562,6.164,2.444
		c2.308,1.003,3.719,2.162,3.251,5.347c-0.658,4.48,2.46,8.231,6.98,8.344c3.425,0.086,4.235,1.894,5.053,4.418
		c1.016,3.133,1.193,6.356,1.366,9.599c0.109,2.052-0.385,3.261-2.581,4.263c-4.695,2.142-6.242,6.096-3.949,10.437
		c1.486,2.812,0.628,4.416-1.249,6.152c-1.752,1.62-3.448,3.32-5.333,4.771c-2.549,1.963-4.687,3.818-8.389,0.78
		c-3.111-2.553-7.71-1.565-9.898,2.027c-1.961,3.221-4.225,2.937-6.826,2.241c-2.612-0.699-5.152-1.743-7.63-2.845
		C432.152,673.816,429.802,672.696,431.29,669.704z M458.248,647.042c-0.023-4.884-4.21-9.156-9.02-9.202
		c-5.299-0.05-9.445,3.985-9.453,9.2c-0.007,5.116,4.293,9.32,9.485,9.271C453.983,656.268,458.271,651.845,458.248,647.042z"/>
	<path d="M320.941,313.83c-0.142-2.173,0.134-3.93,2.623-4.872c4.52-1.71,5.773-5.68,4.353-9.626
		c-1.659-4.61,0.475-7.239,3.471-9.547c3.568-2.748,6.587-7.45,12.434-2.822c2.501,1.979,6.584,0.74,8.582-2.31
		c2.085-3.183,4.727-2.954,7.594-2.152c2.283,0.639,4.451,1.685,6.683,2.516c2.759,1.026,3.958,2.845,3.539,5.887
		c-0.637,4.624,2.059,6.883,6.173,7.752c4.73,0.999,8.399,6.421,7.621,11.448c-0.538,3.477-1.035,6.587-4.877,8.593
		c-2.86,1.493-3.494,5.097-2.029,8.184c1.745,3.679,0.55,6.328-2.375,8.383c-4.141,2.909-7.614,7.667-14.003,3.598
		c-2.872-1.829-6.563-0.077-8.493,2.855c-1.962,2.981-4.28,2.832-7.004,1.889c-2.409-0.834-4.808-1.712-7.159-2.696
		c-2.542-1.064-4.124-2.646-3.749-5.844c0.392-3.34-1.047-6.95-4.336-7.175c-7.823-0.535-7.612-6.425-8.875-11.517
		C320.91,315.563,320.991,314.68,320.941,313.83z M343.464,312.897c0.012,4.955,4.033,9.13,8.92,9.262
		c4.857,0.131,9.391-4.147,9.391-8.86c0-5.317-3.978-9.332-9.364-9.452C347.339,303.734,343.451,307.666,343.464,312.897z"/>
	<path fill="#FC7F0B" d="M618.37,406.003c0.278,2.801-0.857,4.416-3.43,5.61c-3.811,1.768-5.285,5.484-3.806,8.986
		c1.931,4.571-0.153,6.984-3.061,9.599c-3.602,3.239-6.845,6.237-12.44,3.054c-2.812-1.6-6.958-1.214-9.097,2.319
		c-1.999,3.302-4.809,2.776-7.581,2.09c-2.287-0.566-4.44-1.694-6.63-2.627c-2.442-1.04-4.106-2.074-3.606-5.605
		c0.525-3.708-1.348-7.604-5.657-7.694c-4.337-0.092-5.391-2.38-6.398-5.706c-0.857-2.828-1.049-5.653-1.157-8.552
		c-0.084-2.257,0.39-3.663,2.783-4.694c3.99-1.72,5.745-5.598,4.057-9.282c-2.026-4.424,0.109-6.762,2.732-9.19
		c1.858-1.72,4.115-3.006,6.173-4.514c1.572-1.153,2.913-1.193,4.573,0.117c4.07,3.211,8.167,2.688,11.143-1.355
		c3.582-4.867,7.446-1.83,10.955-0.685c3.337,1.089,7.567,2.107,6.832,7.391c-0.583,4.187,2.138,7.233,5.475,7.322
		c5.887,0.158,6.322,3.895,7.107,7.919C617.692,402.335,618.026,404.17,618.37,406.003z M586.691,398.018
		c-4.959,0.002-9.124,4.098-9.179,9.027c-0.057,5.107,4.186,9.389,9.425,9.51c4.407,0.102,8.929-4.735,8.863-9.481
		C595.731,402.076,591.647,398.016,586.691,398.018z"/>
	<path fill="#FC7F0B" d="M297.189,282.098c-0.015,5.456,2.407,8.65,7.617,9.016c2.655,0.187,3.63,1.3,4.113,3.48
		c0.626,2.822,1.335,5.637,1.751,8.492c0.404,2.777,0.148,4.967-3.272,6.367c-4.171,1.707-5.707,6.395-3.309,10.317
		c1.674,2.739,0.549,4.083-0.969,5.609c-2.031,2.042-4.219,3.953-6.493,5.723c-2.301,1.791-4.342,2.664-7.442,0.391
		c-3.555-2.606-7.805-1.703-10.237,2.167c-1.628,2.592-3.225,3.009-5.768,2.11c-2.076-0.734-4.22-1.281-6.279-2.056
		c-3.411-1.283-6.037-2.642-5.617-7.485c0.385-4.435-3.015-7.216-7.507-7.307c-2.468-0.05-3.246-1.066-3.862-3.044
		c-1.886-6.056-4.408-11.953,3.155-16.478c3.034-1.815,3.457-5.956,1.65-8.77c-1.955-3.044-0.793-4.721,1.104-6.534
		c2.078-1.986,4.329-3.799,6.57-5.605c2.142-1.726,4.008-2.161,6.709-0.218c3.988,2.869,8.118,1.834,10.805-2.433
		c1.279-2.031,2.567-2.463,4.56-1.955c3.618,0.922,7.214,1.803,10.397,3.999C296.528,279.031,298.034,279.881,297.189,282.098z
		 M279.369,295.751c-5.066,0.041-9.634,4.576-9.486,9.417c0.15,4.898,4.286,8.831,9.345,8.884c5.44,0.058,9.36-3.888,9.208-9.265
		C288.29,299.669,284.319,295.711,279.369,295.751z"/>
	<path fill="#FC7F0B" d="M154.895,435.472c0.289,2.795-0.186,4.813-3.13,6.258c-3.804,1.867-5.348,5.499-3.67,9.474
		c2.066,4.893-0.806,7.582-3.974,9.864c-3.105,2.237-5.791,6.766-10.908,2.596c-2.724-2.22-6.679-1.968-8.697,1.133
		c-2.99,4.593-6.545,3.905-10.561,2.4c-4.413-1.654-9.108-2.725-8.396-9.418c0.351-3.294-2.59-6.071-5.723-6.204
		c-4.845-0.206-5.834-3.058-6.668-6.768c-0.565-2.515-0.941-5.004-0.951-7.584c-0.007-1.908,0.544-3.134,2.434-3.961
		c4.749-2.078,6.079-5.972,4.324-10.549c-1.954-5.093,1.791-7.381,4.611-9.659c2.766-2.234,5.621-5.713,10.263-2.298
		c3.645,2.682,7.593,2.266,9.945-2.169c1.616-3.048,4.111-2.841,6.574-2.162c2.605,0.718,5.061,1.995,7.562,3.074
		c2.373,1.024,3.708,2.488,3.513,5.46c-0.227,3.464,1.451,7.164,4.805,7.539C154.857,423.461,154.04,429.867,154.895,435.472z
		 M123.529,446.311c4.95,0.029,9.397-4.055,9.477-8.703c0.079-4.604-4.371-9.55-8.737-9.708c-5.025-0.182-10.053,4.621-10.059,9.61
		C114.205,442.189,118.539,446.282,123.529,446.311z"/>
	<polygon fill="#75C4B9" points="643.85,599.988 643.952,599.892 643.861,599.999 	"/>
	<g>
		<path d="M973.464,617.82c8.876-0.026,23.536-0.008,23.536-0.008c0,0.033,0,0.065,0,0.098c13,0,21.87,0.045,31.258-0.019
			c4.507-0.031,9.284-2.655,8.77-6.092c-0.585-3.905-2.351-5.746-6.426-5.728c-18.265,0.08-36.143,0.061-54.408,0.068
			c-4.151,0.002-8.423,1.497-8.353,6.149C967.908,616.834,969.629,617.831,973.464,617.82z"/>
		<path d="M1030.601,621.288c-14.829,0.098-29.658,0.062-44.488,0.077c-3.664-1.674-7.368-0.16-11.019,0.019
			c-5.296,0.261-6.793,3.683-4.26,8.848c0.799,2.347,2.781,2.621,4.817,2.64c3.313,0.031,6.627-0.043,9.937-0.072
			c5.303,0.345,10.601,0.468,15.897-0.115c9.707,0.088,19.417,0.211,29.128,0.252c5.189,0.021,8.161-2.081,7.908-5.822
			C1038.195,622.26,1034.835,621.26,1030.601,621.288z"/>
		<path d="M375.519,679.776c6.599,8.243,14.802,14.546,23.89,19.792c16.385,9.457,34.214,12.244,52.793,11.222
			c3.63-0.2,5.554,0.725,7.525,4.032c17.783,29.829,44.111,45.112,78.939,45.421c11.611,0.103,23.224,0.055,34.835,0.004
			c2.201-0.01,3.503,0.014,4.074,2.961c1.733,8.955,7.259,13.268,16.639,13.242c3.207-0.009,3.892,0.839,3.879,4
			c-0.112,26.477-0.001,52.955,0.031,79.432c0.015,12.463-0.027,24.927,0.018,37.39c0.034,9.12-3.976,15.704-12.214,19.592
			c-4.775,2.253-5.337,1.745-5.54-3.359c-0.399-10.015,1.22-20.126-1.517-30.036c-5.117-18.527-23.07-29.815-42.215-26.473
			c-18.88,3.296-32.042,20.606-30.107,40.169c1.862,18.827,17.12,33.098,36.379,33.139c7.343,0.016,14.685,0.047,22.028,0.076
			c1.478,0.006,3.033-0.468,3.609,1.768c1.482,5.753-0.396,8.348-6.262,8.341c-1.708-0.002-3.416,0.016-5.125,0.018
			c-6.772,0.008-12.906,2.301-17.537,6.983c-7.317,7.396-8.419,18.675-3.584,28.043c4.468,8.657,14.214,13.365,24.591,11.88
			c9.39-1.344,17.321-8.795,19.256-18.747c0.739-3.801,0.659-7.835,0.424-11.731c-0.215-3.562,0.61-4.582,4.263-4.546
			c15.541,0.153,31.408-0.044,46.408-0.113c0,0,0,0.001,0,0.001c5,0.632,8.477,0.424,12.617,0.151
			c-0.273-0.524-0.268-1.007-0.255-1.456c-0.013,0.449,0.145,0.932,0.418,1.456c3.054-0.046,6.138-0.092,9.195-0.138
			c10.705,0.431,21.423,0.813,32.121-0.206c3.004,0.065,6.018,0.13,9.024,0.195c3.085,0.628,6.175,0.472,9.267,0.035
			c0.679,0.032,1.363,0.095,2.045,0.095c79.418-0.008,158.836-0.076,238.253,0.012c16.441,0.018,31.018-4.141,43.782-15.138
			c14.526-12.516,21.871-28.07,22.126-46.96c0.275-20.314,0.031-40.634,0.039-60.952c0.019-51.911,0.053-103.822,0.081-155.733
			c0.057-2.876,0.007-5.758,0.193-8.626c0.36-5.54-1.104-11.175,0.857-16.63c3.409-0.053,6.83-0.309,10.223-0.107
			c4.135,0.246,6.255-1.819,6.319-5.575c0.067-3.895-2.457-5.788-6.308-5.778c-5.115,0.014-10.229,0.082-15.342,0.127v0
			c-3.406-0.281-6.812-0.651-10.195,0.208c-4.276-0.29-8.583-1.115-12.751,0.677c-2.739,1.693-3.139,4.236-2.089,6.931
			c1.035,2.657,3.056,4.418,6.115,4.427c2.184,0.007,4.368-0.144,6.556-0.223c3.401-0.313,4.266,1.065,4.445,4.585
			c0.357,7.007-0.086,13.971-0.087,20.952c-0.011,70.257-0.054,140.514,0.068,210.771c0.016,9.156-0.866,18.011-4.528,26.466v0
			c-1.524,1.252-2.519,2.792-2.634,4.814c-0.575,1.079-1.15,2.157-1.724,3.236c-2.635,0.416-3.23,2.888-4.61,4.574
			c-10.633,11.46-23.912,16.183-39.381,16.164c-82.239-0.104-164.479-0.055-246.719-0.059c0,0,0,0,0,0
			c-4.792-0.256-9.586-0.507-14.371,0.195c-10.832-0.228-21.667-0.538-32.496,0.195c-4.851-1.017-9.729-0.651-14.61-0.28
			c0,0,0,0,0,0c-17.221-0.059-34.444-0.073-51.666-0.256c-1.589-0.017-4.879,1.505-4.419-2.095c0.371-2.901-2.77-7.025,3.15-8.489
			c17.331-4.286,26.383-16.229,26.375-34.014c-0.018-38.54-0.05-77.08-0.097-115.62c-0.003-2.117-0.265-3.692,2.983-3.837
			c8.791-0.393,12.934-4.041,15.592-12.716h0l0,0c0,0,0-0.001,0-0.001c0-0.003,0.041-0.164,0.041-0.165
			c-0.343-2.859,1.228-3.287,3.675-3.265c10.42,0.092,20.847,0.237,31.261-0.025c35.219-0.885,61.752-16.739,78.567-47.591
			c10.475-19.219,13.879-39.883,7.024-61.329c-3.387-10.597-9.55-19.534-17.958-27.11c1.392-0.929,2.5-1.696,3.634-2.421
			c47.978-30.68,52.438-97.812,8.822-134.415c-2.712-2.276-3.102-3.95-1.824-7.193c18.015-45.744-7.781-97.868-56.198-110.508
			c0,0,0,0,0-0.001c-2.662-0.74-5.325-1.481-7.989-2.223c-0.594-3.527-0.724-7.146-2.054-10.531
			c-0.078-2.908-0.985-5.566-2.424-8.065c-1.185-3.735-2.58-7.377-4.722-10.686c-0.876-2.846-2.16-5.453-4.356-7.535
			c-1.681-2.811-3.493-5.523-5.971-7.72c-1.91-2.944-3.924-5.794-6.981-7.701c-19.677-17.465-42.549-24.523-68.636-20.963
			c-8.615,1.176-8.604,1.259-11.468-7.049c-15.484-44.91-68.773-67.727-111.851-47.84c-2.799,1.292-4.591,1.764-7.285-1.01
			c-19.811-20.397-44.313-28.437-72.172-24.65c-19.46,2.646-36.069,11.905-49.265,26.708c-1.943,2.18-3.24,2.767-6.308,1.468
			c-39.41-16.683-84.604-1.523-104.858,36.105c-4.688,8.71-9.021,11.019-18.821,10.921c-42.394-0.424-76.891,31.103-82.189,73.955
			c-0.513,4.152-2.183,4.797-5.542,5.191c-58.376,6.853-91.255,69.091-64.067,121.389c1.352,2.6,1.251,3.883-0.727,5.965
			c-8.722,9.18-14.756,20.044-18.301,32.133c-12.758,43.514,10.712,88.354,53.698,102.946c1.134,0.699,2.247,1.461,3.696,1.185
			c7.982,1.952,16.045,3.148,24.302,3.143c69.854-0.044,139.708-0.03,209.563-0.045c2.728-0.001,5.457-0.128,8.185-0.197
			c0,0,0,0,0,0c5.741,0.706,11.5,0.44,17.261,0.285c3.313,0.785,8.382-2.64,9.311,3.877c0.218,2.863,0.664,5.665,2.197,8.175
			c2.281,9.901,7.898,18.28,12.39,27.169C371.448,676.444,373.204,678.367,375.519,679.776 M65.955,619.186
			c0.405,0.232,0.831,0.422,1.267,0.567C66.785,619.609,66.36,619.419,65.955,619.186z M66.619,607.23
			c0.003-0.001,0.005-0.002,0.007-0.002v0C66.623,607.228,66.621,607.229,66.619,607.23z M84.056,612.124
			c-0.329,0.489-0.539,1.016-0.642,1.571C83.517,613.14,83.727,612.613,84.056,612.124c0.219-0.326,0.491-0.634,0.82-0.923
			C84.547,611.49,84.275,611.798,84.056,612.124z M88.993,608.429c0.252-0.329,0.45-0.692,0.602-1.096
			C89.442,607.736,89.245,608.099,88.993,608.429z M93.701,615.585c0.431,0.435,0.863,0.838,1.303,1.142
			C94.563,616.423,94.131,616.021,93.701,615.585z M652.432,370.33c-0.211,3.367-0.726,6.744,0.332,10.067c0,0,0.001,0,0.001,0
			c0.989,7.647,5.338,11.517,13.319,11.851c29.695,1.242,53.239,23.439,55.903,52.985c1.136,12.602-1.97,24.341-8.473,35.184
			c-5.309,8.851-3.737,15.039,5.193,20.473c26.691,16.243,36.784,45.719,24.564,74.27c-4.427,10.342-11.902,18.901-21.777,24.925
			c0,0,0,0,0-0.001c-1.255-0.018-2.117,0.581-2.651,1.695c-1.92-0.017-3.025,1.656-4.651,2.247c0,0,0,0,0,0
			c-3.188,1.135-6.379,2.271-9.569,3.406c-4.275,0.614-8.55,1.228-12.824,1.842c0,0,0,0,0-0.001
			c-1.683-0.455-3.353-0.792-4.784,0.642c-3.731,1.006-6.691,2.815-7.335,7.037c0,0-0.061,0.053-0.061,0.053
			c-3.18,4.528-2.388,9.413,2.189,13.498c0,0,0,0,0,0c0.307,1.341,0.927,2.36,2.488,2.404c0.117-0.633,0.128-1.311,0.371-1.891
			c-0.243,0.581-1.61,1.258-1.728,1.891c5.251,2.272,6.062,2.304,6.062,0.234c0,0.008,0,0.016,0,0.024
			c0,2.041,8.469,2.135,11.947,3.436c17.303,6.473,27.471,22.537,25.17,41.361c-3.467,28.353-23.806,50.635-51.633,55.76
			c-4.162,0.766-8.304,0.972-12.549,0.995c-19.097,0.1-38.111,0.03-57.209,0.056c-1.856,0.003-3.67-1.829-5.526-1.696
			c0.718,2.398,0.775-2.078,0.057-2.078c0,0-0.048,0-0.048,0c-2.503,0-4.208,1.895-4.208,1.741c0,0,0,0.982,0,0.982
			c0-0.62-6.052-0.371-8.196,0.732c-16.047-0.067-32.921,0.13-48.967,0.041c-19.797-0.109-36.219-8.083-49.137-22.865
			c1.126-1.603,2.404-0.806,3.618-0.81c16.732-0.057,33.361,0.044,50.093-0.038c6.093-0.03,10.884-3.732,12.149-8.956
			c1.485-6.134-0.658-11.419-5.754-14.602c-2.78-1.737-5.867-1.645-8.921-1.647c-32.09-0.024-64.187,0.044-96.276-0.05
			c-18.476-0.054-34.203-6.753-46.989-20.174c-2.21-2.621-4.424-5.244-6.636-7.867c-3.406-6.011-6.247-12.281-8.623-18.767
			c-5.629-4.244-11.642-7.462-18.366-8.278c6.724,0.816,12.737,4.034,18.365,8.276c-0.675-4.635-1.35-9.27-2.026-13.903c0,0,0,0,0,0
			c-0.203-11.465-4.411-15.662-15.819-15.668c-85.843-0.044-171.686-0.11-257.529-0.021c-4.505,0.005-8.626-1.056-12.843-2.139
			c0,0,0,0,0,0c-0.817-1.156-2.021-1.063-3.219-0.993c-14.135-5.955-25.195-15.174-32.29-29.094
			c-11.678-22.909-5.751-52.798,14.087-69.302c10.274-8.547,10.661-12.773,3.368-23.677c-12.836-19.192-14.673-39.562-3.856-60.06
			c10.786-20.441,28.406-30.67,51.61-30.998c2.216-0.031,4.435,0.198,6.653,0.288c9.251,0.378,14.851-5.165,14.139-14.488
			c-0.78-10.211,0.015-20.121,4.266-29.555c12.315-27.327,40.507-40.641,69.432-32.821c9.546,2.581,15.488-0.937,17.756-10.511
			c9.331-39.391,52.93-57.281,87.638-35.961c8.632,5.302,15.105,3.963,20.467-4.234c23.43-35.82,71.755-36.747,96.948-1.858
			c6.011,8.325,11.848,9.41,20.474,3.808c34.262-22.251,79.839-4.432,88.347,34.602c0.898,4.12,1.253,8.363,1.756,12.562
			c1.022,8.523,9.59,14.097,17.27,10.484c23.234-10.93,44.663-8.028,64.73,7.498c2.49,2.639,4.59,5.658,7.604,7.781
			c6.183,9.085,10.657,18.862,12.11,29.867 M593.962,764.86c-1.441,0.004-2.751-0.406-3.706-1.424
			c-0.523-0.558-0.969-2.64-0.901-3.36c0.102-1.069,1.048-2.076,1.886-2.076c3.92,0,3.759,0,17.759,0c0,0,0,2.281,0,2.289
			c0,0,4.24-0.054,7.818,0.035c1.006,0.025,1.169-0.859,1.366,1.073c0.133,1.305-1.542,2.266-2.658,2.773
			c-0.898,0.407-2.314,0.654-3.301,0.663C606.26,764.888,599.928,764.843,593.962,764.86z M565.941,918.71
			c-3.906-0.201-10.941-0.052-10.941-0.052c0-0.108,0-0.215,0-0.323c0,0-10.063,0.483-14.587-0.092
			c-12.922-1.64-23.065-13.965-21.971-26.752c1.162-13.583,12.665-24.348,26.053-23.369c12.723,0.931,23.567,10.13,24.065,24.625
			c0.257,7.487,0.444,14.987,0.597,22.479C569.211,917.857,568.639,918.849,565.941,918.71z M568.605,955.773
			c-0.351,3.205-0.008,6.484-0.344,9.692c-0.663,6.335-6.159,11.023-12.173,10.662c-5.888-0.353-11.212-5.954-11.311-11.897
			c-0.1-6.033,4.378-11.352,10.664-11.777c1.697-0.115,4.558-0.017,4.558-0.017c0-0.017,0-0.034,0-0.051
			c0,0,3.288,0.096,4.641-0.021C567.198,952.143,568.919,952.904,568.605,955.773z M987.792,925.598
			c0.365,0.213,0.734,0.416,1.118,0.572C988.525,926.015,988.157,925.811,987.792,925.598z M999.395,682.297
			c0.297,0.18,0.594,0.248,0.889,0.229C999.989,682.545,999.692,682.477,999.395,682.297z M1004.127,652.645
			c-0.481-1.983-1.274-3.767-2.222-5.452C1002.854,648.877,1003.647,650.661,1004.127,652.645c0.304,1.253,0.509,2.485,0.627,3.701
			C1004.636,655.13,1004.431,653.898,1004.127,652.645z"/>
	</g>
</g>
</svg>
