<?xml version="1.0" encoding="utf-8"?>
<!-- Generator: Adobe Illustrator 16.0.3, SVG Export Plug-In . SVG Version: 6.00 Build 0)  -->
<!DOCTYPE svg PUBLIC "-//W3C//DTD SVG 1.1//EN" "http://www.w3.org/Graphics/SVG/1.1/DTD/svg11.dtd">
<svg version="1.1" id="Layer_1" xmlns="http://www.w3.org/2000/svg" xmlns:xlink="http://www.w3.org/1999/xlink" x="0px" y="0px"
	 width="595px" height="426px" viewBox="0 0 595 426" enable-background="new 0 0 595 426" xml:space="preserve">
<g>
	<g>
		<g>
			<path fill="#A7A9AC" d="M206.499,350.04c-5.299,21.662-10.596,43.326-15.892,64.988c49.447,0,98.898,0,148.352,0
				c-5.304-21.662-10.598-43.326-15.896-64.988C284.207,350.04,245.355,350.04,206.499,350.04z"/>
			<path fill="#BCBEC0" d="M348.129,413.691H181.426c-4.226,0-7.659,2.096-7.659,4.678v1.755h182.028v-1.755
				C355.795,415.787,352.362,413.691,348.129,413.691z"/>
			<path fill="#D1D3D4" d="M14.118,324.744v35.811c0,6.902,5.578,12.482,12.475,12.482h476.367c6.891,0,12.482-5.58,12.482-12.482
				v-35.811H14.118z"/>
			<path fill="#414042" d="M515.441,324.744V21.482C515.441,14.585,509.85,9,502.959,9H26.592c-6.896,0-12.475,5.585-12.475,12.482
				v303.262H515.441z"/>
			<rect x="34.648" y="28.5" fill="#6D6E71" width="460.258" height="275.539"/>
		</g>
		<g>
			<rect x="61.951" y="104.36" fill="#DDDDDD" width="124.843" height="65.032"/>
			<rect x="202.359" y="104.36" fill="#BCBCBC" width="124.84" height="65.032"/>
			<rect x="342.768" y="104.36" fill="#CFCFCF" width="124.837" height="65.032"/>
			<g>
				<rect x="96.274" y="65.52" fill="#DDDDDD" width="83.101" height="9.032"/>
				<path fill="#FFFFFF" d="M85.438,70.035c0,6.486-5.258,11.741-11.744,11.741c-6.481,0-11.744-5.255-11.744-11.741
					c0-6.484,5.262-11.739,11.744-11.739C80.18,58.296,85.438,63.551,85.438,70.035z"/>
			</g>
			<rect x="426.263" y="68.198" fill="#DDDDDD" width="41.344" height="3.672"/>
			<rect x="379.894" y="68.198" fill="#DDDDDD" width="41.348" height="3.672"/>
			<rect x="333.527" y="68.198" fill="#DDDDDD" width="41.348" height="3.672"/>
			<rect x="287.163" y="68.198" fill="#DDDDDD" width="41.346" height="3.672"/>
			<rect x="240.796" y="68.198" fill="#727272" width="41.346" height="3.672"/>
			<g>
				<rect x="61.951" y="210.311" fill="#DDDDDD" width="124.843" height="3.669"/>
				<rect x="61.951" y="222.96" fill="#DDDDDD" width="124.843" height="3.666"/>
				<rect x="61.951" y="235.601" fill="#DDDDDD" width="124.843" height="3.667"/>
				<rect x="61.951" y="248.247" fill="#DDDDDD" width="124.843" height="3.67"/>
				<rect x="61.951" y="260.894" fill="#DDDDDD" width="89.122" height="3.667"/>
				<rect x="61.951" y="189.019" fill="#DDDDDD" width="83.101" height="9.035"/>
			</g>
			<g>
				<rect x="202.359" y="210.311" fill="#DDDDDD" width="124.84" height="3.669"/>
				<rect x="202.359" y="222.96" fill="#DDDDDD" width="124.84" height="3.666"/>
				<rect x="202.359" y="235.601" fill="#DDDDDD" width="124.84" height="3.667"/>
				<rect x="202.359" y="248.247" fill="#DDDDDD" width="124.84" height="3.67"/>
				<rect x="202.359" y="260.894" fill="#DDDDDD" width="89.122" height="3.667"/>
				<rect x="202.359" y="189.019" fill="#DDDDDD" width="83.099" height="9.035"/>
			</g>
			<g>
				<rect x="342.768" y="210.311" fill="#DDDDDD" width="124.837" height="3.669"/>
				<rect x="342.768" y="222.96" fill="#DDDDDD" width="124.837" height="3.666"/>
				<rect x="342.768" y="235.601" fill="#DDDDDD" width="124.837" height="3.667"/>
				<rect x="342.768" y="248.247" fill="#DDDDDD" width="124.837" height="3.67"/>
				<rect x="342.768" y="260.894" fill="#DDDDDD" width="89.118" height="3.667"/>
				<rect x="342.768" y="189.019" fill="#DDDDDD" width="83.097" height="9.035"/>
			</g>
		</g>
	</g>
	<g display="none">
		<defs>
			<path id="SVGID_1_" d="M515.441,372.245V21.482C515.441,14.585,509.85,9,502.959,9H26.592c-6.896,0-12.475,5.585-12.475,12.482
				v350.763H515.441z"/>
		</defs>
		<clipPath id="SVGID_2_" display="inline">
			<use xlink:href="#SVGID_1_"  overflow="visible"/>
		</clipPath>
		<path display="inline" clip-path="url(#SVGID_2_)" fill="#E8E8E8" d="M151.052,239.085H89.589
			c-7.444,0-13.479,6.041-13.479,13.477v147.047c0,7.439,6.035,13.475,13.479,13.475h61.463c7.439,0,13.471-6.035,13.471-13.475
			V252.562C164.523,245.126,158.491,239.085,151.052,239.085z"/>
		<path display="inline" clip-path="url(#SVGID_2_)" fill="#E8E8E8" d="M584.442,179.471H425.757c-6.394,0-11.57,5.187-11.57,11.576
			V399.96c0,6.385,5.177,11.558,11.57,11.558h158.686c6.38,0,11.558-5.173,11.558-11.558V191.047
			C596,184.658,590.822,179.471,584.442,179.471z"/>
	</g>
	<g>
		<g>
			<path fill="#414042" d="M137.752,246.126H76.289c-7.443,0-13.479,6.04-13.479,13.477v147.047c0,7.439,6.035,13.475,13.479,13.475
				h61.464c7.439,0,13.471-6.035,13.471-13.475V259.603C151.223,252.166,145.191,246.126,137.752,246.126z"/>
			<path fill="#FFFFFF" d="M95.428,256.531h23.173c0.651,0,1.178,0.53,1.178,1.178c0,0.657-0.527,1.193-1.178,1.193H95.428
				c-0.648,0-1.176-0.536-1.176-1.193C94.252,257.062,94.78,256.531,95.428,256.531z"/>
			<path fill="#FFFFFF" d="M107.016,410.199c-4.304,0-7.799-3.501-7.799-7.803c0-4.312,3.495-7.803,7.799-7.803
				c4.312,0,7.797,3.491,7.797,7.803C114.813,406.698,111.327,410.199,107.016,410.199z"/>
			<rect x="68.721" y="272.609" fill="#6D6E71" width="76.594" height="113.476"/>
			<path d="M107.016,396.985c-2.982,0-5.409,2.425-5.409,5.411c0,2.985,2.427,5.413,5.409,5.413c2.993,0,5.412-2.428,5.412-5.413
				C112.427,399.41,110.009,396.985,107.016,396.985z"/>
		</g>
		<g>
			<rect x="73.103" y="298.799" fill="#DDDDDD" width="67.771" height="34.864"/>
			<g>
				<rect x="91.738" y="283.81" fill="#DDDDDD" width="49.027" height="4.903"/>
				<path fill="#FFFFFF" d="M85.855,286.258c0,3.524-2.856,6.379-6.372,6.379c-3.521,0-6.381-2.854-6.381-6.379
					c0-3.519,2.86-6.371,6.381-6.371C82.999,279.887,85.855,282.739,85.855,286.258z"/>
			</g>
			<g>
				<rect x="73.103" y="356.028" fill="#DDDDDD" width="67.771" height="1.994"/>
				<rect x="73.103" y="362.896" fill="#DDDDDD" width="67.771" height="1.996"/>
				<rect x="73.103" y="369.761" fill="#DDDDDD" width="67.771" height="1.99"/>
				<rect x="73.103" y="376.624" fill="#DDDDDD" width="49.193" height="1.991"/>
				<rect x="73.103" y="342.729" fill="#DDDDDD" width="45.113" height="4.904"/>
			</g>
		</g>
	</g>
	<g>
		<g>
			<path fill="#414042" d="M571.928,188.077H413.24c-6.395,0-11.569,5.186-11.569,11.576v208.913
				c0,6.384,5.175,11.558,11.569,11.558h158.688c6.38,0,11.557-5.174,11.557-11.558V199.653
				C583.484,193.263,578.308,188.077,571.928,188.077z"/>
			<path fill="#FFFFFF" d="M492.578,414.22c-2.567,0-4.652-2.079-4.652-4.647c0-2.579,2.085-4.649,4.652-4.649
				c2.568,0,4.652,2.07,4.652,4.649C497.23,412.141,495.146,414.22,492.578,414.22z"/>
			<rect x="422.303" y="210.505" fill="#6D6E71" width="140.544" height="187.191"/>
		</g>
		<g>
			<g>
				<rect x="477.306" y="227.813" fill="#DDDDDD" width="51.819" height="5.634"/>
				<path fill="#FFFFFF" d="M470.546,230.63c0,4.041-3.272,7.32-7.322,7.32c-4.042,0-7.318-3.279-7.318-7.32
					c0-4.042,3.276-7.323,7.318-7.323C467.273,223.307,470.546,226.588,470.546,230.63z"/>
			</g>
			<g>
				<rect x="528.137" y="250.223" fill="#DDDDDD" width="20.44" height="2.76"/>
				<rect x="505.215" y="250.223" fill="#DDDDDD" width="20.439" height="2.76"/>
				<rect x="482.292" y="250.223" fill="#DDDDDD" width="20.438" height="2.76"/>
				<rect x="459.374" y="250.223" fill="#DDDDDD" width="20.437" height="2.76"/>
				<rect x="436.45" y="250.223" fill="#DDDDDD" width="20.441" height="2.76"/>
			</g>
			<g>
				<rect x="429.41" y="263.248" fill="#DDDDDD" width="59.4" height="48.882"/>
				<rect x="496.213" y="263.248" fill="#BCBCBC" width="59.398" height="48.882"/>
				<g>
					<rect x="429.41" y="342.893" fill="#DDDDDD" width="59.4" height="2.756"/>
					<rect x="429.41" y="352.396" fill="#DDDDDD" width="59.4" height="2.758"/>
					<rect x="429.41" y="361.901" fill="#DDDDDD" width="59.4" height="2.759"/>
					<rect x="429.41" y="371.405" fill="#DDDDDD" width="59.4" height="2.758"/>
					<rect x="429.41" y="380.912" fill="#DDDDDD" width="42.403" height="2.763"/>
					<rect x="429.41" y="326.886" fill="#DDDDDD" width="39.539" height="6.789"/>
				</g>
				<g>
					<rect x="496.213" y="342.893" fill="#DDDDDD" width="59.398" height="2.756"/>
					<rect x="496.213" y="352.396" fill="#DDDDDD" width="59.398" height="2.758"/>
					<rect x="496.213" y="361.901" fill="#DDDDDD" width="59.398" height="2.759"/>
					<rect x="496.213" y="371.405" fill="#DDDDDD" width="59.398" height="2.758"/>
					<rect x="496.213" y="380.912" fill="#DDDDDD" width="42.403" height="2.763"/>
					<rect x="496.213" y="326.886" fill="#DDDDDD" width="39.54" height="6.789"/>
				</g>
			</g>
		</g>
	</g>
</g>
</svg>
