<?xml version="1.0" encoding="utf-8"?>
<!-- Generator: Adobe Illustrator 16.0.3, SVG Export Plug-In . SVG Version: 6.00 Build 0)  -->
<!DOCTYPE svg PUBLIC "-//W3C//DTD SVG 1.1//EN" "http://www.w3.org/Graphics/SVG/1.1/DTD/svg11.dtd">
<svg version="1.1" id="Layer_1" xmlns="http://www.w3.org/2000/svg" xmlns:xlink="http://www.w3.org/1999/xlink" x="0px" y="0px"
	 width="611px" height="549px" viewBox="0 20 611 549" enable-background="new 0 20 611 549" xml:space="preserve">
<g id="Layer_1_1_">
</g>
<g id="graphic1">
</g>
<g id="graphic2">
</g>
<g id="graphic4">
</g>
<g id="graphic5">
</g>
<path fill-rule="evenodd" clip-rule="evenodd" fill="#646464" stroke="#FFFFFF" stroke-width="0.4997" stroke-linecap="round" stroke-linejoin="round" stroke-miterlimit="2.6131" d="
	M532.521,295.06c2.84,0.624,5.344,0.889,8.213,0.889c21.228,0,38.442-17.218,38.442-38.439c0-21.226-17.215-38.437-38.442-38.437
	c-21.222,0-38.435,17.211-38.435,38.437c0,13.006,6.585,24.658,16.479,31.547c-6.273,4.004-12.539,8.009-18.808,12.017
	C532.521,295.06,521.672,297.066,532.521,295.06z"/>
<path fill-rule="evenodd" clip-rule="evenodd" fill="#646464" stroke="#FFFFFF" stroke-width="0.4997" stroke-linecap="round" stroke-linejoin="round" stroke-miterlimit="2.6131" d="
	M87.871,329.033c7.322-10.254,8.027-23.469,2.968-34.039c-8.011-16.735-28.081-23.812-44.817-15.802
	c-16.731,8.005-23.807,28.079-15.799,44.811c8.009,16.737,28.08,23.81,44.815,15.799c1.185-0.564,2.152-1.096,3.278-1.796
	c9.949,1.835,19.904,3.671,29.854,5.512C87.871,329.033,94.637,333.86,87.871,329.033z"/>
<path fill-rule="evenodd" clip-rule="evenodd" fill="#646464" stroke="#FFFFFF" stroke-width="0.4997" stroke-linecap="round" stroke-linejoin="round" stroke-miterlimit="2.6131" d="
	M12.648,457.767c0-7.435,0-14.862,0-22.296c0-4.097,3.328-7.428,7.43-7.428c23.928,0,47.855,0,71.784,0
	c21.087-6.88,42.178-13.763,63.266-20.64c-10.753,6.877-21.513,13.76-32.268,20.64c6.708,0,13.413,0,20.123,0
	c4.102,0,7.428,3.331,7.428,7.428c0,7.434,0,14.861,0,22.296c0,4.101-3.327,7.429-7.428,7.429c-40.97,0-81.936,0-122.905,0
	C15.976,465.196,12.648,461.867,12.648,457.767z"/>
<path fill-rule="evenodd" clip-rule="evenodd" fill="#646464" stroke="#FFFFFF" stroke-width="0.4997" stroke-linecap="round" stroke-linejoin="round" stroke-miterlimit="2.6131" d="
	M468.236,104.543c3.017,1.07,5.841,1.542,8.929,1.542c14.679,0,26.583-11.905,26.583-26.584c0-14.676-11.904-26.582-26.583-26.582
	c-14.675,0-26.58,11.905-26.58,26.582c0,7.807,3.389,14.866,8.753,19.719c-5.949,5.543-11.906,11.092-17.859,16.633
	C468.236,104.543,459.317,108.312,468.236,104.543z"/>
<path fill-rule="evenodd" clip-rule="evenodd" fill="#646464" stroke="#FFFFFF" stroke-width="0.4997" stroke-linecap="round" stroke-linejoin="round" stroke-miterlimit="2.6131" d="
	M198.784,97.42c4.484-3.358,7.57-7.675,9.38-12.607c5.25-14.322-2.111-30.201-16.434-35.447c-14.325-5.252-30.2,2.111-35.446,16.433
	c-5.251,14.323,2.106,30.197,16.43,35.45c5.484,2.008,11.05,2.182,16.347,0.824c7.22,4.77,14.439,9.541,21.66,14.309
	C198.784,97.42,202.761,103.741,198.784,97.42z"/>
<g>
	<g>
		<rect x="146.098" y="156.532" fill-rule="evenodd" clip-rule="evenodd" fill="#A3A3A3" width="323.841" height="181.856"/>
	</g>
</g>
<g>
	<path fill-rule="evenodd" clip-rule="evenodd" fill="#D2D2D2" d="M253.076,423.805c0-2.445,1.825-4.508,4.252-4.803l9.376-1.148
		l9.396-35.867h69.677l9.397,35.867l9.376,1.148c2.428,0.295,4.253,2.357,4.253,4.803H253.076z"/>
	<polygon fill-rule="evenodd" clip-rule="evenodd" fill="#BDBDBD" points="274.533,387.968 276.1,381.987 345.776,381.987 
		347.345,387.968 	"/>
	<path fill-rule="evenodd" clip-rule="evenodd" fill="#2D2D2D" d="M135.402,352.002V150.7c0-4.3,3.481-7.782,7.781-7.782h329.675
		c4.297,0,7.777,3.482,7.777,7.782v201.302H135.402z"/>
	<path fill-rule="evenodd" clip-rule="evenodd" fill="#EAEAEA" d="M472.857,383.121H143.183c-4.299,0-7.781-3.479-7.781-7.774
		v-23.345h345.233v23.345C480.635,379.643,477.154,383.121,472.857,383.121z"/>
	<path fill-rule="evenodd" clip-rule="evenodd" fill="#E7E7E7" d="M253.076,423.805c0-2.445,1.825-4.508,4.252-4.803l9.376-1.148
		h88.471l9.376,1.148c2.428,0.295,4.253,2.357,4.253,4.803H253.076z"/>
	<g>
		<rect x="146.098" y="156.532" fill-rule="evenodd" clip-rule="evenodd" fill="#FFFFFF" width="323.837" height="181.856"/>
		<rect x="146.098" y="156.532" fill-rule="evenodd" clip-rule="evenodd" fill="#ABABAB" width="323.837" height="8.831"/>
		<rect x="165.713" y="171.627" fill-rule="evenodd" clip-rule="evenodd" fill="#949494" width="21.453" height="16.654"/>
		<rect x="165.713" y="190.418" fill-rule="evenodd" clip-rule="evenodd" fill="#4E4E4E" width="284.61" height="51.618"/>
		<rect x="165.713" y="244.459" fill-rule="evenodd" clip-rule="evenodd" fill="#737373" width="81.317" height="68.774"/>
		<rect x="369.007" y="244.459" fill-rule="evenodd" clip-rule="evenodd" fill="#9D9D9D" width="81.316" height="68.774"/>
		<rect x="146.098" y="322.223" fill-rule="evenodd" clip-rule="evenodd" fill="#ABABAB" width="323.837" height="16.165"/>
		<rect x="267.358" y="278.534" fill-rule="evenodd" clip-rule="evenodd" fill="#AFAFAF" width="81.318" height="5.637"/>
		<rect x="267.358" y="288.22" fill-rule="evenodd" clip-rule="evenodd" fill="#AFAFAF" width="81.318" height="5.634"/>
		<rect x="267.358" y="297.909" fill-rule="evenodd" clip-rule="evenodd" fill="#AFAFAF" width="81.318" height="5.631"/>
		<rect x="267.358" y="307.593" fill-rule="evenodd" clip-rule="evenodd" fill="#AFAFAF" width="51.487" height="5.64"/>
		<g>
			<path fill-rule="evenodd" clip-rule="evenodd" fill="#FFFFFF" d="M432.572,214.84c-0.412-0.267-0.315-0.645,0.223-0.85
				c0.538-0.204,1.306-0.156,1.721,0.107l6.234,4.006c0.036,0.024,0.069,0.049,0.098,0.069l0.007,0.006l0.004,0.009l0.008,0.003
				c0.016,0.012,0.033,0.031,0.049,0.045l0.021,0.028l0.014,0.016l0.027,0.041l0.013,0.044c0.014,0.012,0.016,0.035,0.023,0.051
				v0.004l0.004,0.029l0.002,0.018v0.01v0.011v0.008l-0.002,0.023l-0.004,0.02v0.009c-0.008,0.014-0.01,0.036-0.023,0.056
				l-0.013,0.042l-0.027,0.035l-0.014,0.016l-0.021,0.028c-0.016,0.018-0.033,0.035-0.049,0.048l-0.008,0.004l-0.004,0.002
				l-0.007,0.01c-0.028,0.022-0.062,0.048-0.098,0.069l-6.234,4.003c-0.415,0.27-1.183,0.319-1.721,0.115
				c-0.538-0.206-0.635-0.589-0.223-0.854l5.668-3.639L432.572,214.84z"/>
			<path fill-rule="evenodd" clip-rule="evenodd" fill="#FFFFFF" d="M181.519,214.098c0.417-0.264,1.187-0.311,1.724-0.107
				c0.538,0.205,0.637,0.583,0.222,0.85l-5.668,3.646l5.668,3.639c0.415,0.265,0.315,0.648-0.222,0.854
				c-0.537,0.205-1.307,0.155-1.724-0.115l-6.227-4.003c-0.036-0.021-0.071-0.047-0.102-0.069l-0.005-0.01l-0.008-0.002
				l-0.002-0.004c-0.018-0.013-0.033-0.03-0.048-0.048l-0.026-0.028l-0.007-0.016l-0.027-0.035l-0.021-0.042
				c-0.007-0.021-0.011-0.042-0.013-0.056v-0.009l-0.007-0.02l-0.002-0.023v-0.008v-0.011v-0.01l0.002-0.018l0.007-0.029v-0.004
				c0.002-0.016,0.006-0.039,0.013-0.051l0.021-0.044l0.027-0.041l0.007-0.016l0.026-0.028l0.048-0.045l0.002-0.003l0.008-0.009
				l0.005-0.006c0.031-0.021,0.066-0.045,0.102-0.069L181.519,214.098z"/>
		</g>
		<rect x="316.245" y="170.735" fill-rule="evenodd" clip-rule="evenodd" fill="#949494" width="134.078" height="17.546"/>
		<rect x="189.67" y="171.627" fill-rule="evenodd" clip-rule="evenodd" fill="#949494" width="21.454" height="16.654"/>
		<rect x="213.628" y="171.627" fill-rule="evenodd" clip-rule="evenodd" fill="#949494" width="21.455" height="16.654"/>
		<rect x="237.584" y="171.627" fill-rule="evenodd" clip-rule="evenodd" fill="#949494" width="21.455" height="16.654"/>
		<rect x="261.542" y="171.627" fill-rule="evenodd" clip-rule="evenodd" fill="#949494" width="21.457" height="16.654"/>
		<g>
			<rect x="267.358" y="250.269" fill-rule="evenodd" clip-rule="evenodd" fill="#AFAFAF" width="81.318" height="5.642"/>
			<rect x="267.358" y="259.958" fill-rule="evenodd" clip-rule="evenodd" fill="#AFAFAF" width="81.318" height="5.638"/>
			<rect x="267.358" y="269.648" fill-rule="evenodd" clip-rule="evenodd" fill="#AFAFAF" width="81.318" height="5.635"/>
		</g>
		<path fill-rule="evenodd" clip-rule="evenodd" fill="#E7E7E7" d="M206.447,263.703c6.845,0,12.395,5.55,12.395,12.396
			c0,6.842-5.549,12.391-12.395,12.391c-6.844,0-12.393-5.548-12.393-12.391C194.055,269.254,199.603,263.703,206.447,263.703
			L206.447,263.703z M191.707,276.099c0,8.139,6.6,14.737,14.74,14.737c8.141,0,14.741-6.598,14.741-14.737
			c0-8.143-6.6-14.74-14.741-14.74C198.307,261.359,191.707,267.956,191.707,276.099z"/>
		<polygon fill-rule="evenodd" clip-rule="evenodd" fill="#E7E7E7" points="208.333,272.736 202.672,269.368 202.672,276.099 
			202.672,282.829 208.333,279.46 213.992,276.099 		"/>
	</g>
</g>
<g>
	<g>
		<path fill-rule="evenodd" clip-rule="evenodd" fill="#A8A8A8" d="M403.921,542.447c0,0.398-0.304,0.719-0.688,0.719
			l-189.306,0.002c-0.382,0-0.687-0.322-0.687-0.721v-92.033c0-0.399,0.304-0.717,0.687-0.717l189.306-0.008
			c0.381,0,0.688,0.325,0.688,0.719V542.447z"/>
		<path fill-rule="evenodd" clip-rule="evenodd" fill="#F1F1F1" d="M227.644,468.807c0,0.381-0.308,0.688-0.688,0.688h-10.313
			c-0.379,0-0.686-0.307-0.686-0.688v-5.618c0-0.38,0.307-0.688,0.686-0.688h10.313c0.381,0,0.688,0.308,0.688,0.688V468.807z"/>
		<path fill-rule="evenodd" clip-rule="evenodd" fill="#F1F1F1" d="M241,468.807c0,0.381-0.308,0.688-0.688,0.688h-10.309
			c-0.377,0-0.688-0.307-0.688-0.688v-5.618c0-0.38,0.311-0.688,0.688-0.688h10.309c0.38,0,0.688,0.308,0.688,0.688V468.807z"/>
		<path fill-rule="evenodd" clip-rule="evenodd" fill="#F1F1F1" d="M254.357,468.807c0,0.381-0.306,0.688-0.686,0.688H243.36
			c-0.379,0-0.686-0.307-0.686-0.688v-5.618c0-0.38,0.307-0.688,0.686-0.688h10.311c0.38,0,0.686,0.308,0.686,0.688V468.807z"/>
		<path fill-rule="evenodd" clip-rule="evenodd" fill="#F1F1F1" d="M267.721,468.807c0,0.381-0.31,0.688-0.691,0.684l-10.313,0.004
			c-0.373,0-0.684-0.307-0.684-0.688v-5.618c0-0.383,0.312-0.688,0.684-0.688h10.313c0.381,0,0.691,0.305,0.691,0.688V468.807z"/>
		<path fill-rule="evenodd" clip-rule="evenodd" fill="#F1F1F1" d="M281.076,468.807c0,0.381-0.305,0.684-0.688,0.684h-10.312
			c-0.376,0-0.68-0.303-0.68-0.684v-5.618c0-0.383,0.304-0.688,0.68-0.688h10.312c0.383,0,0.688,0.305,0.688,0.688V468.807z"/>
		<path fill-rule="evenodd" clip-rule="evenodd" fill="#F1F1F1" d="M294.438,468.807c0,0.381-0.315,0.684-0.689,0.684h-10.313
			c-0.378,0-0.687-0.303-0.687-0.684v-5.618c0-0.383,0.309-0.688,0.687-0.688h10.313c0.374,0,0.689,0.305,0.689,0.688V468.807z"/>
		<path fill-rule="evenodd" clip-rule="evenodd" fill="#F1F1F1" d="M307.788,468.807c0.004,0.381-0.302,0.684-0.678,0.684h-10.316
			c-0.376,0-0.682-0.303-0.682-0.684v-5.618c0-0.383,0.306-0.688,0.681-0.688h10.317c0.376,0,0.678,0.305,0.678,0.688V468.807z"/>
		<path fill-rule="evenodd" clip-rule="evenodd" fill="#F1F1F1" d="M321.154,468.807c0,0.378-0.308,0.684-0.685,0.684h-10.311
			c-0.382,0-0.688-0.303-0.688-0.684v-5.618c0-0.383,0.307-0.688,0.688-0.688h10.311c0.377,0,0.685,0.305,0.685,0.688V468.807z"/>
		<path fill-rule="evenodd" clip-rule="evenodd" fill="#F1F1F1" d="M334.514,468.807c0,0.378-0.312,0.684-0.687,0.684h-10.311
			c-0.381,0-0.688-0.306-0.688-0.684v-5.618c0-0.383,0.307-0.688,0.688-0.688h10.311c0.375,0,0.687,0.305,0.687,0.688V468.807z"/>
		<path fill-rule="evenodd" clip-rule="evenodd" fill="#F1F1F1" d="M347.874,468.807c0,0.378-0.309,0.684-0.69,0.684h-10.309
			c-0.377,0-0.69-0.306-0.69-0.684v-5.618c0-0.383,0.313-0.688,0.69-0.688h10.309c0.382,0,0.69,0.305,0.69,0.688V468.807z"/>
		<path fill-rule="evenodd" clip-rule="evenodd" fill="#F1F1F1" d="M361.23,468.807c0,0.378-0.307,0.684-0.687,0.684h-10.312
			c-0.378,0-0.689-0.306-0.689-0.684v-5.618c0-0.383,0.312-0.688,0.689-0.688h10.312c0.38,0,0.687,0.305,0.687,0.688V468.807z"/>
		<path fill-rule="evenodd" clip-rule="evenodd" fill="#F1F1F1" d="M374.589,468.807c0,0.378-0.306,0.684-0.689,0.684h-10.31
			c-0.379,0-0.688-0.306-0.688-0.684v-5.618c0-0.383,0.31-0.688,0.688-0.688h10.31c0.384,0,0.689,0.305,0.689,0.688V468.807z"/>
		<path fill-rule="evenodd" clip-rule="evenodd" fill="#F1F1F1" d="M387.95,468.807c0,0.378-0.311,0.684-0.688,0.684h-10.31
			c-0.374,0-0.687-0.306-0.687-0.684v-5.618c0-0.383,0.313-0.688,0.687-0.688h10.31c0.378,0,0.688,0.305,0.688,0.688V468.807z"/>
		<path fill-rule="evenodd" clip-rule="evenodd" fill="#F1F1F1" d="M401.306,468.807c0,0.378-0.308,0.684-0.688,0.684h-10.312
			c-0.373,0-0.683-0.306-0.683-0.684v-5.618c0-0.383,0.308-0.688,0.683-0.688h10.312c0.38,0,0.688,0.305,0.688,0.688V468.807z"/>
		<path fill-rule="evenodd" clip-rule="evenodd" fill="#F1F1F1" d="M227.644,481.966c0,0.381-0.308,0.682-0.688,0.682l-10.313,0.009
			c-0.379,0-0.686-0.31-0.686-0.687v-10.312c0-0.385,0.307-0.688,0.686-0.688h10.313c0.381,0,0.688,0.304,0.688,0.688V481.966z"/>
		<path fill-rule="evenodd" clip-rule="evenodd" fill="#F1F1F1" d="M240.493,481.966c0,0.381-0.305,0.682-0.688,0.682h-10.311
			c-0.374,0.009-0.682-0.301-0.682-0.682v-10.308c0-0.385,0.309-0.688,0.682-0.688h10.311c0.383,0,0.688,0.304,0.688,0.688V481.966z
			"/>
		<path fill-rule="evenodd" clip-rule="evenodd" fill="#F1F1F1" d="M253.344,481.966c0,0.381-0.309,0.682-0.683,0.682h-10.316
			c-0.376,0-0.682-0.301-0.682-0.682v-10.308c0-0.385,0.306-0.688,0.682-0.688h10.316c0.375,0,0.683,0.304,0.683,0.688V481.966z"/>
		<path fill-rule="evenodd" clip-rule="evenodd" fill="#F1F1F1" d="M266.2,481.966c0,0.381-0.31,0.682-0.687,0.682h-10.314
			c-0.381,0-0.685-0.301-0.685-0.682v-10.308c0-0.385,0.304-0.688,0.685-0.688h10.313c0.378,0,0.688,0.304,0.688,0.688V481.966z"/>
		<path fill-rule="evenodd" clip-rule="evenodd" fill="#F1F1F1" d="M279.051,481.966c0,0.381-0.31,0.682-0.689,0.682h-10.311
			c-0.381,0-0.684-0.307-0.684-0.682v-10.308c0-0.385,0.303-0.688,0.684-0.688h10.311c0.379,0,0.689,0.304,0.689,0.688V481.966z"/>
		<path fill-rule="evenodd" clip-rule="evenodd" fill="#F1F1F1" d="M291.904,481.966c0,0.375-0.31,0.682-0.69,0.682h-10.308
			c-0.382,0-0.689-0.307-0.689-0.682v-10.308c0-0.385,0.308-0.688,0.689-0.691h10.308c0.38,0,0.69,0.307,0.69,0.691V481.966z"/>
		<path fill-rule="evenodd" clip-rule="evenodd" fill="#F1F1F1" d="M304.753,481.966c0,0.375-0.307,0.682-0.689,0.682h-10.309
			c-0.376,0-0.684-0.307-0.684-0.682v-10.308c0-0.385,0.308-0.691,0.684-0.691h10.309c0.375,0,0.689,0.307,0.689,0.691V481.966z"/>
		<path fill-rule="evenodd" clip-rule="evenodd" fill="#F1F1F1" d="M317.603,481.966c0,0.375-0.302,0.682-0.686,0.682h-10.312
			c-0.375,0-0.687-0.307-0.687-0.682v-10.308c0-0.385,0.312-0.691,0.687-0.691h10.312c0.384,0,0.686,0.307,0.686,0.691V481.966z"/>
		<path fill-rule="evenodd" clip-rule="evenodd" fill="#F1F1F1" d="M330.453,481.966c0,0.375-0.301,0.682-0.679,0.682h-10.317
			c-0.378,0-0.682-0.307-0.682-0.682v-10.308c0-0.385,0.304-0.691,0.682-0.691h10.317c0.378,0,0.679,0.307,0.679,0.691V481.966z"/>
		<path fill-rule="evenodd" clip-rule="evenodd" fill="#F1F1F1" d="M343.311,481.966c0,0.375-0.307,0.682-0.686,0.682h-10.31
			c-0.382,0-0.691-0.307-0.691-0.682v-10.308c0-0.385,0.31-0.691,0.688-0.691h10.313c0.379,0,0.686,0.307,0.686,0.691V481.966z"/>
		<path fill-rule="evenodd" clip-rule="evenodd" fill="#F1F1F1" d="M356.163,481.966c0,0.375-0.308,0.682-0.688,0.682h-10.312
			c-0.379,0-0.682-0.307-0.682-0.682v-10.308c0-0.385,0.303-0.691,0.682-0.691h10.312c0.381,0,0.688,0.307,0.688,0.691V481.966z"/>
		<path fill-rule="evenodd" clip-rule="evenodd" fill="#F1F1F1" d="M250.119,506.949c0,0.377-0.312,0.683-0.688,0.683h-10.314
			c-0.377,0-0.687-0.302-0.687-0.683l-0.003-10.313c0-0.375,0.313-0.687,0.69-0.687h10.314c0.376,0,0.688,0.312,0.688,0.687V506.949
			z"/>
		<path fill-rule="evenodd" clip-rule="evenodd" fill="#F1F1F1" d="M262.972,506.949c0,0.377-0.307,0.683-0.69,0.683h-10.311
			c-0.383,0-0.685-0.306-0.685-0.683v-10.313c0-0.375,0.302-0.687,0.685-0.687h10.311c0.383,0,0.69,0.312,0.69,0.687V506.949z"/>
		<path fill-rule="evenodd" clip-rule="evenodd" fill="#F1F1F1" d="M275.821,506.941c0,0.39-0.305,0.691-0.686,0.691H264.82
			c-0.374,0-0.683-0.302-0.683-0.683v-10.314c0-0.378,0.309-0.685,0.683-0.685h10.315c0.381,0,0.684,0.307,0.686,0.685V506.941z"/>
		<path fill-rule="evenodd" clip-rule="evenodd" fill="#F1F1F1" d="M288.674,506.941c0,0.39-0.305,0.691-0.688,0.691h-10.31
			c-0.377,0-0.688-0.302-0.688-0.691v-10.306c0-0.378,0.311-0.685,0.688-0.685h10.31c0.383,0,0.688,0.307,0.688,0.685V506.941z"/>
		<path fill-rule="evenodd" clip-rule="evenodd" fill="#F1F1F1" d="M301.528,506.941c0,0.39-0.31,0.691-0.687,0.691h-10.316
			c-0.376,0-0.686-0.302-0.686-0.691v-10.306c0-0.378,0.307-0.685,0.686-0.685h10.316c0.377,0,0.687,0.307,0.687,0.685V506.941z"/>
		<path fill-rule="evenodd" clip-rule="evenodd" fill="#F1F1F1" d="M314.38,506.941c0,0.39-0.311,0.691-0.688,0.691h-10.314
			c-0.379,0-0.683-0.302-0.683-0.691v-10.306c0-0.378,0.304-0.685,0.683-0.685h10.314c0.377,0,0.688,0.307,0.688,0.685V506.941z"/>
		<path fill-rule="evenodd" clip-rule="evenodd" fill="#F1F1F1" d="M327.228,506.941c0,0.39-0.308,0.691-0.686,0.691h-10.31
			c-0.378,0-0.685-0.302-0.685-0.691v-10.306c0-0.378,0.307-0.685,0.685-0.685h10.31c0.378,0,0.686,0.307,0.686,0.685V506.941z"/>
		<path fill-rule="evenodd" clip-rule="evenodd" fill="#F1F1F1" d="M340.08,506.941c0,0.39-0.307,0.691-0.688,0.691h-10.308
			c-0.378,0-0.688-0.302-0.688-0.691v-10.306c0-0.378,0.31-0.685,0.688-0.685h10.308c0.382,0,0.688,0.307,0.688,0.685V506.941z"/>
		<path fill-rule="evenodd" clip-rule="evenodd" fill="#F1F1F1" d="M352.936,506.941c0,0.386-0.311,0.691-0.687,0.691h-10.315
			c-0.374,0-0.688-0.306-0.688-0.691v-10.304c0-0.38,0.31-0.687,0.688-0.687h10.315c0.376,0,0.687,0.307,0.687,0.685V506.941z"/>
		<path fill-rule="evenodd" clip-rule="evenodd" fill="#F1F1F1" d="M365.783,506.941c0,0.386-0.307,0.689-0.681,0.691h-10.313
			c-0.384,0-0.686-0.306-0.686-0.691v-10.306c0-0.378,0.302-0.685,0.686-0.685l10.313-0.003c0.374,0.003,0.681,0.31,0.681,0.688
			V506.941z"/>
		<path fill-rule="evenodd" clip-rule="evenodd" fill="#F1F1F1" d="M256.543,519.335c0,0.38-0.311,0.684-0.686,0.684h-10.313
			c-0.376,0-0.687-0.304-0.687-0.684v-10.311c0-0.38,0.311-0.692,0.687-0.692h10.313c0.375,0,0.686,0.309,0.686,0.692V519.335z"/>
		<path fill-rule="evenodd" clip-rule="evenodd" fill="#F1F1F1" d="M269.398,519.335c0,0.38-0.308,0.684-0.69,0.684h-10.312
			c-0.376,0-0.687-0.304-0.687-0.684v-10.311c0-0.384,0.311-0.692,0.687-0.692h10.312c0.383,0,0.69,0.309,0.69,0.692V519.335z"/>
		<path fill-rule="evenodd" clip-rule="evenodd" fill="#F1F1F1" d="M282.248,519.335c0,0.38-0.305,0.684-0.688,0.684h-10.312
			c-0.38,0-0.688-0.304-0.688-0.684v-10.311c0-0.384,0.309-0.692,0.688-0.692h10.312c0.382,0,0.688,0.309,0.688,0.692V519.335z"/>
		<path fill-rule="evenodd" clip-rule="evenodd" fill="#F1F1F1" d="M295.1,519.335c0,0.38-0.309,0.684-0.687,0.684h-10.313
			c-0.379,0-0.681-0.304-0.681-0.684v-10.311c0-0.384,0.302-0.692,0.681-0.692h10.313c0.378,0,0.687,0.309,0.687,0.692V519.335z"/>
		<path fill-rule="evenodd" clip-rule="evenodd" fill="#F1F1F1" d="M307.954,519.331c0,0.384-0.309,0.688-0.689,0.688h-10.313
			c-0.377,0-0.683-0.304-0.683-0.684v-10.311c0-0.384,0.306-0.692,0.683-0.692h10.313c0.381,0,0.689,0.309,0.686,0.692
			L307.954,519.331z"/>
		<path fill-rule="evenodd" clip-rule="evenodd" fill="#F1F1F1" d="M320.804,519.331c0,0.384-0.306,0.688-0.688,0.688h-10.311
			c-0.374,0-0.686-0.304-0.686-0.688v-10.307c0-0.384,0.312-0.692,0.686-0.692h10.311c0.383,0,0.688,0.309,0.688,0.692V519.331z"/>
		<path fill-rule="evenodd" clip-rule="evenodd" fill="#F1F1F1" d="M333.656,519.331c0,0.384-0.307,0.688-0.688,0.688h-10.313
			c-0.378,0-0.685-0.304-0.685-0.688v-10.307c0-0.384,0.303-0.692,0.685-0.692h10.313c0.381,0,0.688,0.309,0.688,0.692V519.331z"/>
		<path fill-rule="evenodd" clip-rule="evenodd" fill="#F1F1F1" d="M346.508,519.331c0,0.384-0.308,0.688-0.687,0.688h-10.31
			c-0.378,0-0.688-0.304-0.688-0.688v-10.307c0-0.384,0.311-0.692,0.688-0.692h10.31c0.379,0,0.687,0.309,0.687,0.692V519.331z"/>
		<path fill-rule="evenodd" clip-rule="evenodd" fill="#F1F1F1" d="M359.361,519.331c0,0.384-0.311,0.688-0.692,0.688h-10.308
			c-0.378,0-0.69-0.304-0.69-0.688v-10.307c0-0.384,0.313-0.692,0.69-0.692h10.308c0.382,0,0.692,0.309,0.692,0.692V519.331z"/>
		<path fill-rule="evenodd" clip-rule="evenodd" fill="#F1F1F1" d="M372.207,519.331c0,0.384-0.303,0.688-0.681,0.688h-10.314
			c-0.379,0-0.684-0.304-0.684-0.688v-10.307c0-0.384,0.305-0.692,0.684-0.692h10.314c0.378,0,0.681,0.309,0.681,0.692V519.331z"/>
		<path fill-rule="evenodd" clip-rule="evenodd" fill="#F1F1F1" d="M378.637,506.941c0,0.386-0.307,0.689-0.688,0.689h-10.31
			c-0.376,0-0.684-0.304-0.684-0.689v-10.306c0-0.378,0.308-0.688,0.684-0.688h10.31c0.382,0,0.688,0.31,0.688,0.688V506.941z"/>
		<path fill-rule="evenodd" clip-rule="evenodd" fill="#F1F1F1" d="M369.017,481.966c0,0.375-0.311,0.682-0.686,0.682h-10.316
			c-0.381,0-0.681-0.307-0.681-0.682v-10.308c0-0.385,0.3-0.691,0.681-0.691h10.316c0.375,0,0.686,0.307,0.686,0.691V481.966z"/>
		<path fill-rule="evenodd" clip-rule="evenodd" fill="#F1F1F1" d="M381.866,481.962c0,0.379-0.307,0.686-0.688,0.686h-10.311
			c-0.379,0-0.686-0.307-0.686-0.682v-10.308c0-0.385,0.307-0.691,0.686-0.691l10.311-0.005c0.381,0,0.688,0.312,0.688,0.694
			V481.962z"/>
		<path fill-rule="evenodd" clip-rule="evenodd" fill="#F1F1F1" d="M246.843,494.482c0,0.38-0.308,0.688-0.685,0.688h-10.315
			c-0.381,0-0.687-0.309-0.687-0.684V484.17c0-0.381,0.306-0.686,0.687-0.686h10.315c0.376,0,0.685,0.305,0.685,0.686V494.482z"/>
		<path fill-rule="evenodd" clip-rule="evenodd" fill="#F1F1F1" d="M259.696,494.482c0,0.38-0.31,0.688-0.689,0.688h-10.307
			c-0.38,0-0.687-0.309-0.687-0.688V484.17c0-0.381,0.307-0.686,0.687-0.686h10.307c0.38,0,0.689,0.305,0.689,0.686V494.482z"/>
		<path fill-rule="evenodd" clip-rule="evenodd" fill="#F1F1F1" d="M272.545,494.482c0,0.38-0.306,0.688-0.687,0.688h-10.31
			c-0.377,0-0.688-0.309-0.688-0.688V484.17c0-0.381,0.312-0.686,0.688-0.686h10.31c0.381,0,0.687,0.305,0.687,0.686V494.482z"/>
		<path fill-rule="evenodd" clip-rule="evenodd" fill="#F1F1F1" d="M285.397,494.482c0,0.38-0.307,0.688-0.681,0.688H274.4
			c-0.376,0-0.683-0.309-0.683-0.688V484.17c0-0.381,0.307-0.686,0.683-0.686h10.317c0.374,0,0.681,0.305,0.681,0.686V494.482z"/>
		<path fill-rule="evenodd" clip-rule="evenodd" fill="#F1F1F1" d="M298.251,494.482c0,0.38-0.31,0.688-0.684,0.688H287.25
			c-0.377,0-0.685-0.309-0.685-0.688V484.17c0-0.381,0.307-0.686,0.685-0.686h10.317c0.374,0,0.684,0.305,0.684,0.686V494.482z"/>
		<path fill-rule="evenodd" clip-rule="evenodd" fill="#F1F1F1" d="M311.104,494.482c0,0.38-0.309,0.688-0.689,0.688h-10.311
			c-0.38,0-0.686-0.309-0.686-0.688V484.17c0-0.381,0.306-0.686,0.686-0.686h10.311c0.381,0,0.689,0.305,0.689,0.686V494.482z"/>
		<path fill-rule="evenodd" clip-rule="evenodd" fill="#F1F1F1" d="M323.954,494.482c0,0.38-0.309,0.688-0.686,0.688h-10.313
			c-0.379,0-0.684-0.309-0.684-0.688v-10.313c0-0.379,0.305-0.684,0.684-0.684h10.313c0.377,0,0.686,0.305,0.686,0.684V494.482z"/>
		<path fill-rule="evenodd" clip-rule="evenodd" fill="#F1F1F1" d="M336.808,494.482c0,0.38-0.307,0.688-0.685,0.688h-10.313
			c-0.379,0-0.687-0.309-0.687-0.688v-10.313c0-0.379,0.308-0.684,0.687-0.684h10.313c0.378,0,0.685,0.305,0.685,0.684V494.482z"/>
		<path fill-rule="evenodd" clip-rule="evenodd" fill="#F1F1F1" d="M349.66,494.482c0,0.38-0.307,0.688-0.687,0.688h-10.31
			c-0.379,0-0.691-0.309-0.691-0.688v-10.313c0-0.379,0.307-0.684,0.691-0.684h10.31c0.38,0,0.687,0.305,0.687,0.684V494.482z"/>
		<path fill-rule="evenodd" clip-rule="evenodd" fill="#F1F1F1" d="M362.512,494.482c0,0.38-0.309,0.688-0.687,0.688h-10.312
			c-0.379,0-0.681-0.309-0.681-0.688v-10.313c0-0.379,0.302-0.684,0.681-0.684h10.312c0.378,0,0.687,0.305,0.687,0.684V494.482z"/>
		<path fill-rule="evenodd" clip-rule="evenodd" fill="#F1F1F1" d="M375.359,494.482c0,0.38-0.301,0.688-0.679,0.688h-10.314
			c-0.38,0-0.684-0.309-0.684-0.688l-0.004-10.313c0-0.379,0.308-0.684,0.684-0.684h10.318c0.378,0,0.679,0.305,0.679,0.684V494.482
			z"/>
		<path fill-rule="evenodd" clip-rule="evenodd" fill="#F1F1F1" d="M388.214,494.482c0,0.38-0.304,0.688-0.684,0.688h-10.315
			c-0.377,0-0.684-0.309-0.684-0.688v-10.313c0-0.379,0.307-0.684,0.684-0.684h10.315c0.38,0,0.684,0.305,0.684,0.684V494.482z"/>
		<path fill-rule="evenodd" clip-rule="evenodd" fill="#F1F1F1" d="M401.068,494.482c0,0.38-0.311,0.687-0.685,0.687l-10.316,0.002
			c-0.38-0.002-0.687-0.309-0.687-0.688v-10.313c0-0.379,0.307-0.684,0.687-0.684h10.316c0.374,0,0.685,0.305,0.685,0.684V494.482z"
			/>
		<path fill-rule="evenodd" clip-rule="evenodd" fill="#F1F1F1" d="M233.811,494.073c0,0.376-0.305,0.685-0.687,0.685h-16.481
			c-0.379,0-0.686-0.309-0.686-0.685v-9.488c0-0.382,0.307-0.688,0.686-0.688h16.481c0.382,0,0.687,0.306,0.687,0.688V494.073z"/>
		<path fill-rule="evenodd" clip-rule="evenodd" fill="#F1F1F1" d="M236.856,506.497c0,0.373-0.307,0.687-0.686,0.687h-19.527
			c-0.379,0-0.686-0.313-0.686-0.687v-9.409c0-0.377,0.307-0.683,0.686-0.683l19.527-0.004c0.379,0,0.686,0.31,0.686,0.687V506.497z
			"/>
		<path fill-rule="evenodd" clip-rule="evenodd" fill="#F1F1F1" d="M243.44,518.922c0,0.38-0.306,0.687-0.685,0.687h-26.112
			c-0.379,0-0.686-0.307-0.686-0.687v-9.484c0-0.378,0.307-0.688,0.686-0.688h26.112c0.379,0,0.685,0.31,0.685,0.688V518.922z"/>
		<path fill-rule="evenodd" clip-rule="evenodd" fill="#F1F1F1" d="M401.182,481.559c0,0.376-0.307,0.681-0.689,0.681h-16.479
			c-0.382,0-0.687-0.305-0.687-0.681v-9.493c0-0.377,0.305-0.682,0.687-0.682h16.479c0.383,0,0.689,0.305,0.689,0.682V481.559z"/>
		<path fill-rule="evenodd" clip-rule="evenodd" fill="#F1F1F1" d="M401.182,506.497c0,0.373-0.307,0.682-0.688,0.682h-19.527
			c-0.379,0-0.688-0.309-0.688-0.682v-9.413c0-0.373,0.309-0.683,0.688-0.683h19.525c0.383,0,0.689,0.31,0.689,0.683V506.497z"/>
		<path fill-rule="evenodd" clip-rule="evenodd" fill="#F1F1F1" d="M401.182,518.922c0,0.373-0.307,0.687-0.688,0.687h-26.105
			c-0.381,0-0.689-0.313-0.689-0.687v-9.484c0-0.378,0.307-0.689,0.689-0.689h26.104c0.383,0,0.689,0.307,0.689,0.689V518.922z"/>
		<path fill-rule="evenodd" clip-rule="evenodd" fill="#F1F1F1" d="M227.313,533.156c0,0.381-0.305,0.688-0.686,0.688h-9.984
			c-0.379,0-0.686-0.307-0.686-0.688v-11.138c0-0.374,0.307-0.685,0.686-0.685h9.984c0.381,0,0.686,0.311,0.686,0.685V533.156z"/>
		<path fill-rule="evenodd" clip-rule="evenodd" fill="#F1F1F1" d="M240.151,533.156c0,0.381-0.305,0.688-0.684,0.688h-9.988
			c-0.378,0-0.686-0.307-0.686-0.688v-11.138c0-0.374,0.307-0.685,0.686-0.685h9.988c0.378,0,0.684,0.308,0.684,0.685V533.156z"/>
		<path fill-rule="evenodd" clip-rule="evenodd" fill="#F1F1F1" d="M252.988,533.156c0,0.381-0.305,0.688-0.685,0.688h-9.985
			c-0.382,0-0.684-0.307-0.684-0.688v-11.134c0-0.381,0.302-0.688,0.684-0.688h9.985c0.38,0,0.685,0.308,0.685,0.688V533.156z"/>
		<path fill-rule="evenodd" clip-rule="evenodd" fill="#F1F1F1" d="M269.113,533.156c0,0.381-0.396,0.688-0.885,0.688h-12.875
			c-0.49,0-0.887-0.307-0.887-0.688v-11.134c0-0.381,0.396-0.688,0.887-0.688h12.875c0.489,0,0.885,0.308,0.885,0.685V533.156z"/>
		<path fill-rule="evenodd" clip-rule="evenodd" fill="#F1F1F1" d="M333.872,533.156c0,0.377-0.309,0.688-0.689,0.68l-61.9,0.008
			c-0.379,0-0.691-0.307-0.691-0.688v-11.134c0-0.381,0.312-0.688,0.691-0.688h61.9c0.381,0,0.689,0.308,0.689,0.685V533.156z"/>
		<path fill-rule="evenodd" clip-rule="evenodd" fill="#F1F1F1" d="M349.67,533.156c0,0.377-0.307,0.68-0.687,0.68H335.71
			c-0.375,0-0.683-0.303-0.683-0.68v-11.138c0-0.377,0.308-0.685,0.683-0.685h13.273c0.38,0,0.687,0.308,0.687,0.685V533.156z"/>
		<path fill-rule="evenodd" clip-rule="evenodd" fill="#F1F1F1" d="M362.675,533.156c0,0.377-0.312,0.68-0.69,0.68h-10.065
			c-0.376,0-0.682-0.303-0.682-0.68v-11.138c0-0.377,0.306-0.685,0.682-0.685h10.065c0.379,0,0.69,0.308,0.69,0.685V533.156z"/>
		<path fill-rule="evenodd" clip-rule="evenodd" fill="#F1F1F1" d="M375.507,533.156c0,0.377-0.307,0.68-0.68,0.68h-9.819
			c-0.383,0-0.688-0.303-0.688-0.68v-4.885c0-0.375,0.306-0.684,0.688-0.684h9.819c0.373,0,0.68,0.309,0.68,0.684V533.156z"/>
		<path fill-rule="evenodd" clip-rule="evenodd" fill="#F1F1F1" d="M388.344,533.156c0,0.377-0.305,0.68-0.688,0.68h-9.813
			c-0.381,0-0.687-0.303-0.687-0.68v-4.885c0-0.375,0.306-0.684,0.687-0.684h9.813c0.383,0,0.688,0.304,0.688,0.684V533.156z"/>
		<path fill-rule="evenodd" clip-rule="evenodd" fill="#F1F1F1" d="M388.344,526.9c0,0.383-0.305,0.688-0.688,0.688h-9.813
			c-0.381,0-0.687-0.306-0.687-0.688v-4.883c0-0.375,0.306-0.683,0.687-0.683h9.813c0.383,0,0.688,0.308,0.688,0.683V526.9z"/>
		<path fill-rule="evenodd" clip-rule="evenodd" fill="#F1F1F1" d="M401.182,533.156c0,0.377-0.307,0.68-0.688,0.68h-9.817
			c-0.377,0-0.685-0.303-0.685-0.68v-4.885c0-0.38,0.308-0.684,0.685-0.684h9.817c0.381,0,0.688,0.304,0.688,0.684V533.156z"/>
		<path fill-rule="evenodd" clip-rule="evenodd" fill="#FCFCFC" d="M284.706,511.626c-0.194-0.005-0.384,0-0.579,0.009
			c0.177-0.447,0.357-0.823,0.536-1.066c1.021-1.392,2.376-0.303,2.376-0.303c0.172,0.626,0.227,1.229,0.224,1.801
			C286.454,511.792,285.598,511.642,284.706,511.626z"/>
	</g>
	<path fill-rule="evenodd" clip-rule="evenodd" fill="#8B8B8B" d="M403.921,540.877H213.242v1.569c0,0.398,0.303,0.721,0.685,0.721
		l189.306-0.002c0.384,0,0.688-0.32,0.688-0.719V540.877z"/>
</g>
<g>
	<path fill-rule="evenodd" clip-rule="evenodd" fill="#C9C9C9" d="M50.088,214.49c5.578,0,10.099,4.522,10.099,10.096
		c0,5.578-4.521,10.102-10.099,10.102s-10.093-4.523-10.093-10.102C39.995,219.012,44.51,214.49,50.088,214.49L50.088,214.49z
		 M65.17,243.304L65.17,243.304c1.34-1.078,2.556-2.296,3.635-3.636l7.501,2.268c0.705-1.064,1.343-2.169,1.916-3.316l-5.711-5.357
		c0.613-1.581,1.064-3.246,1.329-4.972l7.626-1.791c0.038-0.63,0.055-1.268,0.055-1.914c0-0.641-0.017-1.282-0.055-1.912
		l-7.626-1.786c-0.264-1.722-0.715-3.387-1.329-4.971l5.711-5.362c-0.573-1.144-1.211-2.25-1.916-3.313l-7.501,2.269
		c-1.079-1.34-2.295-2.556-3.635-3.638l2.27-7.5c-1.065-0.7-2.169-1.342-3.317-1.913l-5.357,5.704
		c-1.584-0.608-3.248-1.063-4.975-1.325l-1.786-7.625c-0.633-0.036-1.271-0.057-1.915-0.057c-0.64,0-1.28,0.021-1.915,0.057
		l-1.785,7.625c-1.722,0.267-3.388,0.717-4.973,1.325l-5.36-5.704c-1.143,0.57-2.25,1.212-3.311,1.913l2.267,7.5
		c-1.339,1.082-2.557,2.297-3.637,3.638l-7.499-2.269c-0.702,1.064-1.345,2.169-1.917,3.313l5.706,5.362
		c-0.61,1.584-1.061,3.249-1.329,4.971l-7.618,1.786c-0.042,0.63-0.059,1.271-0.059,1.912c0,0.646,0.017,1.284,0.059,1.914
		l7.618,1.791c0.268,1.726,0.718,3.391,1.329,4.972l-5.706,5.357c0.572,1.147,1.215,2.252,1.917,3.316l7.499-2.268
		c1.08,1.34,2.297,2.559,3.637,3.636l-2.267,7.498c1.061,0.705,2.168,1.348,3.311,1.921l5.36-5.714
		c1.585,0.614,3.251,1.064,4.973,1.333l1.785,7.619c0.634,0.042,1.274,0.057,1.915,0.057c0.645,0,1.282-0.016,1.915-0.057
		l1.786-7.619c1.727-0.27,3.391-0.719,4.975-1.333l5.357,5.714c1.148-0.574,2.252-1.216,3.317-1.921L65.17,243.304z"/>
	<path fill-rule="evenodd" clip-rule="evenodd" fill="#C9C9C9" d="M95.986,188.516c4.323,0.811,7.173,4.974,6.363,9.297
		c-0.809,4.323-4.973,7.171-9.299,6.364c-4.323-0.815-7.167-4.975-6.361-9.298C87.502,190.555,91.664,187.707,95.986,188.516
		L95.986,188.516z M103.493,213.049L103.493,213.049c1.191-0.645,2.317-1.41,3.348-2.288l5.487,2.845
		c0.698-0.72,1.355-1.485,1.968-2.292l-3.65-4.982c0.705-1.141,1.297-2.367,1.753-3.665l6.172-0.276
		c0.123-0.488,0.228-0.978,0.324-1.478c0.087-0.5,0.169-0.995,0.233-1.492l-5.654-2.494c0.044-1.375-0.061-2.729-0.308-4.046
		l5.203-3.329c-0.272-0.973-0.609-1.923-1.001-2.848l-6.142,0.668c-0.646-1.196-1.412-2.316-2.29-3.351l2.846-5.482
		c-0.723-0.701-1.489-1.356-2.294-1.971l-4.986,3.65c-1.14-0.704-2.365-1.301-3.662-1.754l-0.277-6.168
		c-0.486-0.125-0.975-0.23-1.478-0.323c-0.495-0.092-0.993-0.174-1.488-0.234l-2.494,5.647c-1.377-0.041-2.735,0.063-4.049,0.31
		l-3.327-5.206c-0.972,0.275-1.924,0.614-2.848,1.003l0.667,6.147c-1.195,0.638-2.316,1.407-3.347,2.29l-5.489-2.849
		c-0.699,0.723-1.356,1.487-1.967,2.292l3.646,4.987c-0.701,1.136-1.294,2.362-1.75,3.663l-6.172,0.277
		c-0.121,0.482-0.228,0.977-0.324,1.474c-0.09,0.499-0.17,0.999-0.232,1.495l5.652,2.492c-0.045,1.378,0.059,2.731,0.307,4.049
		l-5.208,3.325c0.278,0.974,0.616,1.923,1.007,2.848l6.144-0.666c0.641,1.194,1.409,2.318,2.289,3.35l-2.846,5.484
		c0.72,0.698,1.483,1.357,2.292,1.966l4.984-3.649c1.139,0.708,2.366,1.295,3.664,1.758l0.278,6.165
		c0.481,0.125,0.977,0.233,1.475,0.325c0.5,0.093,0.998,0.172,1.495,0.235l2.492-5.648c1.379,0.042,2.731-0.064,4.047-0.313
		l3.327,5.209c0.97-0.276,1.923-0.617,2.849-1.005L103.493,213.049z"/>
</g>
<g>
	<path fill-rule="evenodd" clip-rule="evenodd" fill="#B3B3B3" d="M586.587,341.96c-0.624,0.695-1.455,1.065-2.327,1.12
		c-0.801,0.042-1.629-0.199-2.292-0.724c-0.021-0.027-1.492-1.552-3.771-1.544c-1.459,0.014-3.021,0.695-4.046,1.841
		c-0.546,0.613-7.695,8.625-7.695,8.625c-0.998,1.121-1.46,2.546-1.373,3.942c0.072,1.381,0.689,2.747,1.808,3.745
		c1.119,0.992,2.54,1.444,3.926,1.363c1.383-0.077,2.758-0.694,3.759-1.814l4.818-5.406c1.614,0.524,3.294,0.733,4.959,0.637
		c1.021-0.056,2.042-0.229,3.034-0.521c-0.039,0.042-8.794,9.868-8.794,9.868c-2.109,2.357-4.972,3.646-7.914,3.813
		c-2.943,0.171-5.939-0.78-8.297-2.885c-2.366-2.107-3.647-4.983-3.815-7.915c-0.169-2.941,0.772-5.94,2.891-8.302l8.673-9.732
		c2.105-2.358,4.971-3.638,7.908-3.809c2.936-0.171,5.931,0.776,8.3,2.883c0.87,0.779,1.601,1.669,2.184,2.643L586.587,341.96z"/>
	<path fill-rule="evenodd" clip-rule="evenodd" fill="#B3B3B3" d="M574.877,332.739c0.99-0.281,1.999-0.451,3.026-0.515
		c1.666-0.094,3.354,0.116,4.977,0.641l4.816-5.411c0.994-1.12,2.362-1.729,3.743-1.81c1.386-0.078,2.814,0.372,3.934,1.37
		c1.077,0.959,1.737,2.289,1.813,3.743c0.081,1.439-0.411,2.849-1.374,3.93l-7.691,8.642c-0.25,0.271-1.648,1.671-3.755,1.8
		c-2.296,0.144-3.348-0.971-4.088-1.529c-0.749-0.564-1.476-0.752-2.282-0.712c-0.867,0.055-1.693,0.436-2.313,1.122l-1.931,2.162
		c0.577,0.971,1.298,1.869,2.179,2.65c2.356,2.109,5.351,3.056,8.291,2.89c2.938-0.173,5.812-1.459,7.919-3.818l8.675-9.735
		c2.026-2.277,3.102-5.17,2.897-8.24c-0.211-3.033-1.551-5.933-3.824-7.963c-2.371-2.104-5.367-3.048-8.303-2.888
		c-2.941,0.173-5.809,1.45-7.913,3.813C583.673,322.88,574.925,332.7,574.877,332.739z"/>
</g>
<g>
	<path fill="#FFFFFF" d="M161.41,68.864c1.063-0.195,2.537-0.336,4.539-0.336c2.175,0,3.769,0.456,4.81,1.326
		c0.963,0.799,1.592,2.075,1.592,3.598c0,1.545-0.481,2.829-1.399,3.701c-1.186,1.18-3.045,1.736-5.147,1.736
		c-0.554,0-1.061-0.021-1.446-0.098v6.136h-2.948V68.864z M164.358,76.451c0.36,0.095,0.844,0.12,1.446,0.12
		c2.223,0,3.576-1.088,3.576-2.998c0-1.81-1.256-2.779-3.308-2.779c-0.822,0-1.402,0.073-1.714,0.15V76.451z"/>
	<path fill="#FFFFFF" d="M177.878,68.648v6.52h6.884v-6.52h2.972v16.278h-2.972v-7.172h-6.884v7.172h-2.971V68.648H177.878z"/>
	<path fill="#FFFFFF" d="M191.132,68.864c1.063-0.195,2.534-0.336,4.541-0.336c2.175,0,3.768,0.456,4.808,1.326
		c0.966,0.799,1.595,2.075,1.595,3.598c0,1.545-0.485,2.829-1.401,3.701c-1.187,1.18-3.043,1.736-5.146,1.736
		c-0.555,0-1.065-0.021-1.452-0.098v6.136h-2.945V68.864z M194.077,76.451c0.366,0.095,0.847,0.12,1.452,0.12
		c2.222,0,3.575-1.088,3.575-2.998c0-1.81-1.256-2.779-3.309-2.779c-0.821,0-1.402,0.073-1.718,0.15V76.451z"/>
</g>
<g>
	<path fill="#FFFFFF" d="M514.955,249.768v6.522h6.884v-6.522h2.973v16.286h-2.973v-7.177h-6.884v7.177h-2.974v-16.286H514.955z"/>
	<path fill="#FFFFFF" d="M531.325,252.258h-4.636v-2.49h12.292v2.49h-4.688v13.796h-2.968V252.258z"/>
	<path fill="#FFFFFF" d="M554.557,259.406c-0.097-2.1-0.214-4.637-0.193-6.831h-0.072c-0.531,1.975-1.21,4.177-1.934,6.228
		l-2.368,7.055h-2.292l-2.171-6.956c-0.629-2.081-1.209-4.301-1.644-6.327h-0.049c-0.075,2.125-0.171,4.703-0.291,6.929l-0.363,6.55
		H540.4l1.091-16.286h3.913l2.127,6.547c0.576,1.907,1.087,3.842,1.495,5.656h0.076c0.429-1.766,0.988-3.771,1.617-5.681
		l2.244-6.522h3.865l0.942,16.286h-2.896L554.557,259.406z"/>
	<path fill="#FFFFFF" d="M560.782,249.768h2.97v13.793h6.694v2.493h-9.664V249.768z"/>
</g>
<g>
	<path fill="#FFFFFF" d="M471.417,87.764c-0.701,0.362-2.25,0.727-4.206,0.727c-5.169,0-8.308-3.238-8.308-8.191
		c0-5.362,3.719-8.597,8.696-8.597c1.956,0,3.357,0.41,3.964,0.722l-0.657,2.368c-0.768-0.337-1.832-0.628-3.184-0.628
		c-3.313,0-5.703,2.078-5.703,5.993c0,3.572,2.103,5.868,5.68,5.868c1.202,0,2.459-0.242,3.235-0.603L471.417,87.764z"/>
	<path fill="#FFFFFF" d="M473.876,85.012c0.962,0.557,2.415,1.038,3.938,1.038c1.905,0,2.969-0.892,2.969-2.221
		c0-1.234-0.82-1.956-2.903-2.707c-2.68-0.964-4.393-2.394-4.393-4.734c0-2.659,2.224-4.685,5.747-4.685
		c1.767,0,3.07,0.383,3.914,0.817l-0.721,2.393c-0.581-0.313-1.719-0.772-3.24-0.772c-1.885,0-2.703,1.014-2.703,1.955
		c0,1.257,0.943,1.835,3.118,2.683c2.825,1.063,4.199,2.487,4.199,4.829c0,2.612-1.979,4.883-6.185,4.883
		c-1.712,0-3.504-0.484-4.395-1.017L473.876,85.012z"/>
	<path fill="#FFFFFF" d="M486.407,85.012c0.966,0.557,2.415,1.038,3.938,1.038c1.905,0,2.972-0.892,2.972-2.221
		c0-1.234-0.82-1.956-2.899-2.707c-2.681-0.964-4.398-2.394-4.398-4.734c0-2.659,2.224-4.685,5.754-4.685
		c1.761,0,3.063,0.383,3.908,0.817l-0.724,2.393c-0.579-0.313-1.713-0.772-3.234-0.772c-1.884,0-2.707,1.014-2.707,1.955
		c0,1.257,0.939,1.835,3.115,2.683c2.826,1.063,4.205,2.487,4.205,4.829c0,2.612-1.982,4.883-6.185,4.883
		c-1.717,0-3.505-0.484-4.403-1.017L486.407,85.012z"/>
</g>
<g>
	<path fill="#FFFFFF" d="M48.589,318.418l-1.761-3.234c-0.701-1.257-1.16-2.129-1.62-3.066h-0.073
		c-0.383,0.938-0.82,1.81-1.471,3.066l-1.62,3.234h-3.406l4.83-8.235l-4.637-8.042h3.406l1.765,3.358
		c0.53,1.014,0.917,1.808,1.351,2.727h0.047c0.437-1.01,0.773-1.736,1.282-2.727l1.74-3.358h3.405l-4.757,7.943l4.951,8.335H48.589z
		"/>
	<path fill="#FFFFFF" d="M67.96,311.778c-0.097-2.104-0.219-4.64-0.193-6.838h-0.075c-0.532,1.983-1.207,4.181-1.932,6.234
		l-2.369,7.052H61.1l-2.176-6.957c-0.628-2.076-1.206-4.297-1.641-6.329h-0.048c-0.073,2.126-0.169,4.712-0.292,6.937l-0.363,6.542
		h-2.778l1.087-16.278h3.915l2.125,6.548c0.58,1.905,1.088,3.84,1.498,5.646H62.5c0.435-1.761,0.989-3.766,1.616-5.676l2.249-6.519
		h3.866l0.942,16.278h-2.9L67.96,311.778z"/>
	<path fill="#FFFFFF" d="M74.182,302.14h2.971v13.791h6.692v2.487h-9.664V302.14z"/>
</g>
<g>
	<path fill="#FFFFFF" d="M26.831,439.852h2.716v9.646c0,4.109-1.985,5.479-4.944,5.479c-0.754,0-1.704-0.133-2.277-0.353
		l0.335-2.184c0.439,0.13,1.036,0.261,1.677,0.261c1.542,0,2.493-0.705,2.493-3.286V439.852z"/>
	<path fill="#FFFFFF" d="M35.508,450.516l-1.282,4.22h-2.803l4.769-14.884h3.468l4.835,14.884H41.58l-1.345-4.22H35.508z
		 M39.769,448.464L38.6,444.8c-0.287-0.907-0.531-1.924-0.751-2.787h-0.044c-0.22,0.863-0.441,1.899-0.706,2.787l-1.147,3.664
		H39.769z"/>
	<path fill="#FFFFFF" d="M48.712,454.736l-4.814-14.884h2.958l2.031,6.757c0.574,1.874,1.061,3.618,1.457,5.427h0.044
		c0.397-1.765,0.928-3.571,1.522-5.384l2.166-6.8h2.892l-5.145,14.884H48.712z"/>
	<path fill="#FFFFFF" d="M60.344,450.516l-1.278,4.22h-2.806l4.77-14.884h3.467l4.835,14.884h-2.916l-1.347-4.22H60.344z
		 M64.607,448.464l-1.171-3.664c-0.286-0.907-0.53-1.924-0.75-2.787h-0.044c-0.221,0.863-0.443,1.899-0.705,2.787l-1.148,3.664
		H64.607z"/>
	<path fill="#FFFFFF" d="M71.338,451.777c0.884,0.506,2.209,0.948,3.598,0.948c1.747,0,2.718-0.816,2.718-2.03
		c0-1.127-0.751-1.791-2.65-2.474c-2.451-0.885-4.018-2.184-4.018-4.328c0-2.434,2.03-4.286,5.254-4.286
		c1.613,0,2.804,0.354,3.577,0.756l-0.662,2.183c-0.531-0.284-1.569-0.709-2.96-0.709c-1.719,0-2.468,0.93-2.468,1.789
		c0,1.151,0.858,1.679,2.845,2.455c2.583,0.97,3.843,2.266,3.843,4.411c0,2.386-1.812,4.465-5.655,4.465
		c-1.567,0-3.199-0.442-4.016-0.932L71.338,451.777z"/>
	<path fill="#FFFFFF" d="M93.53,454.293c-0.642,0.33-2.054,0.663-3.844,0.663c-4.726,0-7.594-2.961-7.594-7.488
		c0-4.903,3.4-7.861,7.947-7.861c1.788,0,3.07,0.375,3.621,0.665l-0.595,2.163c-0.706-0.31-1.678-0.578-2.915-0.578
		c-3.026,0-5.209,1.9-5.209,5.479c0,3.266,1.919,5.364,5.187,5.364c1.106,0,2.254-0.219,2.961-0.553L93.53,454.293z"/>
	<path fill="#FFFFFF" d="M95.848,440.05c1.016-0.177,2.537-0.307,4.106-0.307c2.139,0,3.6,0.35,4.592,1.188
		c0.817,0.687,1.278,1.722,1.278,2.98c0,1.92-1.299,3.224-2.692,3.734v0.063c1.059,0.398,1.7,1.437,2.078,2.871
		c0.461,1.858,0.86,3.579,1.17,4.154h-2.806c-0.22-0.442-0.575-1.66-0.994-3.517c-0.419-1.942-1.127-2.558-2.672-2.602H98.54v6.118
		h-2.692V440.05z M98.54,446.625h1.611c1.833,0,2.982-0.971,2.982-2.444c0-1.636-1.149-2.389-2.915-2.389
		c-0.86,0-1.412,0.064-1.678,0.136V446.625z"/>
	<path fill="#FFFFFF" d="M111.125,439.852v14.884h-2.72v-14.884H111.125z"/>
	<path fill="#FFFFFF" d="M114.237,440.05c0.971-0.177,2.319-0.307,4.152-0.307c1.984,0,3.444,0.416,4.394,1.213
		c0.88,0.725,1.456,1.896,1.456,3.289c0,1.409-0.441,2.583-1.279,3.376c-1.082,1.082-2.782,1.594-4.705,1.594
		c-0.509,0-0.969-0.022-1.326-0.09v5.61h-2.692V440.05z M116.929,446.981c0.334,0.092,0.776,0.114,1.326,0.114
		c2.033,0,3.267-0.992,3.267-2.738c0-1.658-1.148-2.542-3.023-2.542c-0.753,0-1.28,0.066-1.57,0.137V446.981z"/>
	<path fill="#FFFFFF" d="M129.428,442.125h-4.241v-2.273h11.239v2.273h-4.284v12.61h-2.714V442.125z"/>
</g>
<g>
	<path fill-rule="evenodd" clip-rule="evenodd" fill="#C9C9C9" d="M331.002,80.674c-2.579,0.188-6.239,0.27-8.916-0.418
		c-4.581-1.169-12.142-12.142-15.445-16.726c-3.302-4.577-1.813-15.976-2.557-16.613c-0.746-0.642-1.919-2.024-4.688-0.642
		c-2.769,1.385-5.856,5.648-5.646,12.359c0.213,6.709,2.877,13.1,2.77,16.295c-0.105,3.197-3.512,3.623-8.738,5.114
		c-5.215,1.492-10.225,2.665-12.353,5.75c-2.128,3.089,2.023,7.991,2.662,8.522c0.638,0.532-0.958,1.279,0.106,5.112
		c1.065,3.834,4.26,4.795,4.26,4.795s-0.427,2.665,0.905,4.953c1.332,2.289,4.471,3.197,4.471,3.197s-0.634,3.352,1.973,4.738
		c2.607,1.383,15.498,1.013,20.185-1.333c4.688-2.342,9.056-6.39,12.994-7.133c2.552-0.486,6.884-0.39,9.969-0.432
		c-0.087-0.209-0.146-0.435-0.161-0.673l-1.782-26.675C331.002,80.802,331.002,80.737,331.002,80.674z"/>
	<path fill-rule="evenodd" clip-rule="evenodd" fill="#C9C9C9" d="M341.291,78.087l-6.909,0.46c-1.11,0.078-1.955,1.044-1.879,2.155
		l1.782,26.679c0.072,1.109,1.042,1.96,2.148,1.881l6.912-0.459c1.108-0.072,1.96-1.043,1.882-2.155l-1.782-26.676
		C343.373,78.86,342.401,78.013,341.291,78.087z"/>
</g>
<g>
	<path fill-rule="evenodd" clip-rule="evenodd" fill="#A4A4A4" d="M22.645,86.527l-2.293-7.274l5.264-1.662l2.295,7.279
		L22.645,86.527L22.645,86.527z M20.167,90.114l12.247,38.864l65.57-20.667L85.736,69.449L20.167,90.114L20.167,90.114
		L20.167,90.114z M52.6,69.09L52.6,69.09l5.263-1.657l2.292,7.273l-5.265,1.659L52.6,69.09L52.6,69.09z M41.848,72.478
		L41.848,72.478l5.268-1.662l2.29,7.277l-5.263,1.658L41.848,72.478L41.848,72.478z M31.096,75.869L31.096,75.869l5.272-1.665
		l2.292,7.277l-5.269,1.659L31.096,75.869L31.096,75.869z M84.066,55.055L84.066,55.055l-70.782,22.31l20.802,66.002l70.783-22.306
		L84.066,55.055L84.066,55.055z M90.341,113.882L90.341,113.882l5.269-1.658l2.291,7.271l-5.266,1.663L90.341,113.882
		L90.341,113.882z M79.596,117.271L79.596,117.271l5.265-1.659l2.295,7.271l-5.265,1.661L79.596,117.271L79.596,117.271z
		 M68.849,120.658L68.849,120.658l5.264-1.662l2.294,7.275l-5.264,1.663L68.849,120.658L68.849,120.658z M58.099,124.047
		L58.099,124.047l5.269-1.662l2.292,7.274l-5.266,1.661L58.099,124.047L58.099,124.047z M47.35,127.433L47.35,127.433l5.27-1.662
		l2.292,7.273l-5.269,1.663L47.35,127.433L47.35,127.433z M36.602,130.82L36.602,130.82l5.264-1.658l2.294,7.271l-5.263,1.662
		L36.602,130.82L36.602,130.82z M74.091,62.319L74.091,62.319l5.266-1.663l2.292,7.276l-5.264,1.657L74.091,62.319L74.091,62.319z
		 M63.345,65.703L63.345,65.703l5.265-1.658l2.292,7.274l-5.262,1.659L63.345,65.703z"/>
	<path fill-rule="evenodd" clip-rule="evenodd" fill="#A4A4A4" d="M53.774,82.382c-9.294,2.931-14.455,12.842-11.525,22.132
		c2.928,9.294,12.839,14.457,22.13,11.522c9.294-2.925,14.452-12.834,11.523-22.126C72.975,84.614,63.067,79.455,53.774,82.382
		L53.774,82.382z M45.071,103.629L45.071,103.629c-2.436-7.736,1.858-15.98,9.592-18.419c7.731-2.438,15.976,1.856,18.412,9.588
		c2.439,7.731-1.853,15.978-9.586,18.417C55.753,115.651,47.513,111.357,45.071,103.629z"/>
	<path fill-rule="evenodd" clip-rule="evenodd" fill="#A4A4A4" d="M51.796,92.345c-0.273,0.306-0.359,0.694-0.235,1.084
		l4.669,14.831c0.124,0.386,0.418,0.664,0.816,0.748c0.395,0.092,0.781-0.025,1.058-0.319l10.834-11.564
		c0.284-0.307,0.374-0.703,0.252-1.099c-0.126-0.394-0.428-0.667-0.835-0.752l-15.508-3.266
		C52.45,91.925,52.065,92.049,51.796,92.345z"/>
</g>
<g>
	<path fill-rule="evenodd" clip-rule="evenodd" fill="#BEBEBE" d="M535.439,159.019c0.87-10.374,9.888-18.088,20.149-17.231
		c10.258,0.86,17.866,9.966,17,20.343c-0.863,10.375-9.889,18.088-20.143,17.232C542.185,178.502,534.568,169.394,535.439,159.019
		L535.439,159.019z M587.066,137.844L587.066,137.844l-61.867-5.176c-3.979-0.333-7.508,2.646-7.84,6.629l-3.025,36.169
		c-0.332,3.977,2.649,7.507,6.63,7.84l61.867,5.175c3.982,0.335,7.5-2.648,7.835-6.628l3.032-36.171
		C594.03,141.702,591.05,138.178,587.066,137.844L587.066,137.844z M574.271,147.886L574.271,147.886l0.427-5.121
		c0.038-0.43,0.415-0.752,0.844-0.717l10.757,0.902c0.43,0.034,0.749,0.416,0.714,0.846l-0.425,5.12
		c-0.042,0.429-0.418,0.747-0.844,0.712l-10.765-0.9C574.553,148.695,574.233,148.312,574.271,147.886z"/>
	<path fill-rule="evenodd" clip-rule="evenodd" fill="#BEBEBE" d="M555.288,145.339c-8.32-0.698-15.639,5.559-16.344,13.975
		c-0.698,8.416,5.472,15.8,13.793,16.498c8.327,0.698,15.639-5.559,16.345-13.978C569.791,153.421,563.611,146.037,555.288,145.339
		L555.288,145.339z M540.63,159.452L540.63,159.452c0.628-7.468,7.125-13.028,14.519-12.408c7.39,0.615,12.876,7.179,12.251,14.65
		c-0.625,7.474-7.129,13.034-14.519,12.414C545.492,173.49,540.005,166.928,540.63,159.452z"/>
	<path fill-rule="evenodd" clip-rule="evenodd" fill="#BEBEBE" d="M555.045,148.265c-6.724-0.563-12.636,4.49-13.2,11.29
		c-0.573,6.8,4.415,12.767,11.138,13.33c6.726,0.563,12.636-4.49,13.205-11.292C566.757,154.797,561.769,148.829,555.045,148.265z"
		/>
	<path fill-rule="evenodd" clip-rule="evenodd" fill="#BEBEBE" d="M524.927,131.834l9.247,0.772c0.344,0.029,0.65-0.229,0.683-0.577
		l0.18-2.143c0.031-0.348-0.229-0.656-0.58-0.687l-9.245-0.774c-0.348-0.026-0.657,0.236-0.688,0.583l-0.182,2.139
		C524.317,131.494,524.574,131.805,524.927,131.834z"/>
</g>
<g>
	<path fill-rule="evenodd" clip-rule="evenodd" fill="#E7E7E7" d="M451.469,456.626c17.191,0,19.41,12.236,19.41,27.327
		c0,15.088-8.688,27.326-19.41,27.326c-10.717,0-19.406-12.238-19.406-27.326C432.063,468.863,434.283,456.626,451.469,456.626z"/>
	<path fill-rule="evenodd" clip-rule="evenodd" fill="#D2D2D2" d="M470.874,482.814c-0.224,14.819-8.826,26.738-19.405,26.738
		c-10.576,0-19.177-11.919-19.4-26.738c0,0,0,0.005,0,0.013c0,0.372-0.006,0.747-0.006,1.127c0,15.093,8.689,27.326,19.406,27.326
		c10.723,0,19.41-12.233,19.41-27.326c0-0.38-0.003-0.755-0.005-1.127C470.874,482.819,470.874,482.819,470.874,482.814z"/>
	<rect x="451.236" y="456.626" fill-rule="evenodd" clip-rule="evenodd" fill="#404040" width="0.466" height="7.937"/>
	<path fill-rule="evenodd" clip-rule="evenodd" fill="#404040" d="M451.472,474.698c1.278,0,2.324-2.598,2.324-5.785
		c0-3.182-1.046-5.778-2.324-5.778c-1.279,0-2.326,2.597-2.326,5.778C449.146,472.101,450.192,474.698,451.472,474.698z"/>
	<path fill-rule="evenodd" clip-rule="evenodd" fill="#202020" d="M451.023,464.896h0.734c0.528,0,0.959,0.435,0.959,0.966v5.548
		c0,0.532-0.431,0.964-0.959,0.964h-0.734c-0.53,0-0.964-0.432-0.964-0.964v-5.548C450.06,465.33,450.493,464.896,451.023,464.896z"
		/>
</g>
<path fill-rule="evenodd" clip-rule="evenodd" fill="#646464" stroke="#FFFFFF" stroke-width="0.4997" stroke-linecap="round" stroke-linejoin="round" stroke-miterlimit="2.6131" d="
	M495.413,415.289c0.324,2.387,0.822,4.417,1.631,6.648c6.002,16.516,24.264,25.049,40.779,19.058
	c16.514-5.998,25.051-24.265,19.055-40.783c-5.997-16.518-24.26-25.051-40.776-19.054c-10.122,3.679-17.331,12.095-19.896,21.739
	c-4.889-3.752-9.777-7.496-14.667-11.244C495.413,415.289,490.789,407.412,495.413,415.289z"/>
<g>
	<path fill="#FFFFFF" d="M515.841,419.861c-0.7,0.361-2.245,0.72-4.204,0.72c-5.168,0-8.309-3.229-8.309-8.184
		c0-5.365,3.721-8.602,8.696-8.602c1.957,0,3.358,0.413,3.96,0.729l-0.655,2.365c-0.769-0.339-1.832-0.63-3.187-0.63
		c-3.31,0-5.7,2.076-5.7,5.99c0,3.579,2.102,5.871,5.679,5.871c1.208,0,2.466-0.238,3.234-0.599L515.841,419.861z"/>
	<path fill="#FFFFFF" d="M532.115,413.701c-0.097-2.104-0.216-4.639-0.192-6.84h-0.075c-0.526,1.985-1.206,4.182-1.932,6.238
		l-2.368,7.052h-2.294l-2.172-6.961c-0.628-2.076-1.207-4.298-1.642-6.329h-0.053c-0.071,2.126-0.168,4.713-0.285,6.938
		l-0.367,6.547h-2.779l1.093-16.284h3.913l2.126,6.546c0.577,1.911,1.087,3.843,1.497,5.657h0.072
		c0.433-1.771,0.991-3.771,1.619-5.682l2.247-6.521h3.865l0.939,16.284h-2.899L532.115,413.701z"/>
	<path fill="#FFFFFF" d="M538.266,417.106c0.969,0.556,2.415,1.04,3.938,1.04c1.911,0,2.972-0.894,2.972-2.224
		c0-1.231-0.822-1.952-2.897-2.702c-2.683-0.971-4.397-2.397-4.397-4.737c0-2.655,2.223-4.688,5.749-4.688
		c1.76,0,3.065,0.388,3.912,0.818l-0.727,2.394c-0.577-0.314-1.711-0.769-3.234-0.769c-1.883,0-2.706,1.015-2.706,1.956
		c0,1.253,0.943,1.837,3.115,2.679c2.825,1.063,4.204,2.487,4.204,4.833c0,2.609-1.978,4.874-6.185,4.874
		c-1.711,0-3.502-0.479-4.394-1.012L538.266,417.106z"/>
</g>
</svg>
